<?xml version="1.0" encoding="UTF-8"?>
<svg id="Layer_2" data-name="Layer 2" xmlns="http://www.w3.org/2000/svg" viewBox="0 0 500.08 125.5">
  <defs>
    <style>
      .cls-1 {
        fill: #dc8327;
      }

      .cls-2 {
        fill: #fff;
      }

      .cls-3 {
        fill: #015095;
      }

      .cls-4 {
        fill: #f2ab45;
      }

      .cls-5 {
        fill: #88aacd;
      }
    </style>
  </defs>
  <g id="Layer_1-2" data-name="Layer 1">
    <g>
      <rect class="cls-2" width="500.08" height="125.5"/>
      <g>
        <g id="Icon">
          <g>
            <g>
              <polygon class="cls-1" points="42.56 56.82 52.93 67.18 52.93 46.45 42.56 56.82"/>
              <polygon class="cls-4" points="52.93 46.45 52.93 67.18 63.29 56.82 52.93 46.45"/>
              <polygon class="cls-1" points="19.95 39.86 19.95 51.13 38.58 69.82 38.58 58.51 19.95 39.86"/>
              <polygon class="cls-4" points="67.27 58.51 67.27 69.82 85.9 51.16 85.9 39.86 67.27 58.51"/>
              <polygon class="cls-3" points="42.56 88.85 52.93 99.22 52.93 72.83 42.56 62.47 42.56 88.85"/>
            </g>
            <rect class="cls-5" x="56.85" y="31.58" width="27.96" height="14.66" transform="translate(-6.76 61.48) rotate(-45)"/>
            <rect class="cls-3" x="27.69" y="24.92" width="14.66" height="27.98" transform="translate(-17.26 36.16) rotate(-45)"/>
          </g>
          <polygon class="cls-5" points="52.94 72.83 52.94 99.22 63.3 88.86 63.3 62.47 52.94 72.83"/>
        </g>
        <g>
          <g>
            <path class="cls-3" d="m134.67,37.02c5.63,0,10.55,3.39,13.14,8.41l10.18-10.1c-5.45-6.99-13.94-11.49-23.49-11.49-16.44,0-29.77,13.33-29.77,29.77s13.33,29.77,29.77,29.77c9.46,0,17.89-4.41,23.34-11.29l-10.05-10.25c-2.6,5-7.5,8.36-13.12,8.36-8.34,0-15.1-7.42-15.1-16.58s6.76-16.58,15.1-16.58Z"/>
            <path class="cls-3" d="m190.94,37.02c5.63,0,10.55,3.39,13.14,8.41l10.18-10.1c-5.45-6.99-13.94-11.49-23.49-11.49-16.44,0-29.77,13.33-29.77,29.77s13.33,29.77,29.77,29.77c9.46,0,17.89-4.41,23.34-11.29l-10.05-10.25c-2.6,5-7.5,8.36-13.12,8.36-8.34,0-15.1-7.42-15.1-16.58s6.76-16.58,15.1-16.58Z"/>
            <polygon class="cls-3" points="298.26 24.54 284.1 66.08 274.69 38.47 258.25 38.47 273.26 82.35 294.94 82.35 315.35 24.54 298.26 24.54"/>
            <g>
              <polygon class="cls-5" points="220.52 24.54 220.52 82.35 235.43 82.35 235.43 60.66 256.07 60.66 256.07 46.73 235.43 46.73 235.43 38.47 258.54 38.47 253.72 24.54 220.52 24.54"/>
              <polygon class="cls-4" points="269.94 24.54 255.93 24.54 253.55 24.54 258.25 38.47 261.18 38.47 274.69 38.47 269.94 24.54"/>
            </g>
          </g>
          <g>
            <path class="cls-3" d="m114.14,98.36c-1.07,1-2.06,1.4-3.43,1.4s-2.49-.47-3.31-1.38c-.79-.87-1.25-2.12-1.25-3.39,0-2.81,1.91-4.82,4.58-4.82,1.43,0,2.39.4,3.49,1.47l-1.23,1.25c-.75-.68-1.38-.96-2.16-.96-1.62,0-2.75,1.25-2.75,3.02s1.19,3.06,2.85,3.06c.84,0,1.49-.29,2.06-.94l1.15,1.3Z"/>
            <path class="cls-3" d="m120.16,93.17h1.76v6.41h-1.76v-.89c-.6.76-1.29,1.11-2.23,1.11-1.8,0-3.09-1.4-3.09-3.35s1.36-3.5,3.23-3.5c.87,0,1.47.3,2.09,1.04v-.82Zm-3.43,3.25c0,1.12.73,1.97,1.69,1.97s1.77-.91,1.77-2.02-.72-1.94-1.76-1.94-1.7.82-1.7,1.99Z"/>
            <path class="cls-3" d="m125.49,93.17v.79c.47-.73.94-1.01,1.74-1.01.61,0,1.19.22,1.58.6.42.42.57.93.57,1.98v4.06h-1.76v-3.97c0-.36-.04-.57-.15-.75-.17-.26-.5-.43-.84-.43-.68,0-1.14.51-1.14,1.26v3.89h-1.76v-6.41h1.76Z"/>
            <path class="cls-3" d="m136.07,93.17h1.76v6.41h-1.76v-.89c-.6.76-1.29,1.11-2.23,1.11-1.8,0-3.09-1.4-3.09-3.35s1.36-3.5,3.23-3.5c.87,0,1.47.3,2.09,1.04v-.82Zm-3.43,3.25c0,1.12.73,1.97,1.69,1.97s1.77-.91,1.77-2.02-.72-1.94-1.76-1.94-1.7.82-1.7,1.99Z"/>
            <path class="cls-3" d="m144.56,90.35h1.76v9.23h-1.76v-.84c-.55.76-1.16,1.07-2.15,1.07-1.9,0-3.17-1.36-3.17-3.36,0-1.08.36-1.98,1.02-2.6.61-.57,1.38-.89,2.17-.89.87,0,1.5.28,2.12.93v-3.53Zm-3.45,6.1c0,1.11.73,1.94,1.73,1.94s1.72-.84,1.72-1.95c0-1.16-.72-2.01-1.7-2.01s-1.74.84-1.74,2.02Z"/>
            <path class="cls-3" d="m149.99,91.36c0,.54-.42.95-.97.95s-.98-.42-.98-.97.42-.98.98-.98.97.42.97,1Zm-.1,8.22h-1.76v-6.41h1.76v6.41Z"/>
            <path class="cls-3" d="m156.63,93.17h1.76v6.41h-1.76v-.89c-.6.76-1.29,1.11-2.23,1.11-1.8,0-3.09-1.4-3.09-3.35s1.36-3.5,3.23-3.5c.87,0,1.47.3,2.09,1.04v-.82Zm-3.43,3.25c0,1.12.73,1.97,1.69,1.97s1.77-.91,1.77-2.02-.72-1.94-1.76-1.94-1.7.82-1.7,1.99Z"/>
            <path class="cls-3" d="m161.96,93.17v.79c.47-.73.94-1.01,1.74-1.01.61,0,1.19.22,1.58.6.42.42.57.93.57,1.98v4.06h-1.76v-3.97c0-.36-.04-.57-.15-.75-.17-.26-.5-.43-.84-.43-.68,0-1.14.51-1.14,1.26v3.89h-1.76v-6.41h1.76Z"/>
            <path class="cls-3" d="m179.5,98.36c-1.07,1-2.06,1.4-3.43,1.4s-2.49-.47-3.31-1.38c-.79-.87-1.25-2.12-1.25-3.39,0-2.81,1.91-4.82,4.58-4.82,1.43,0,2.39.4,3.49,1.47l-1.23,1.25c-.75-.68-1.38-.96-2.16-.96-1.62,0-2.75,1.25-2.75,3.02s1.19,3.06,2.85,3.06c.84,0,1.5-.29,2.06-.94l1.15,1.3Z"/>
            <path class="cls-3" d="m181.97,96.8c.15.89.8,1.44,1.67,1.44.65,0,1.2-.32,1.48-.83l1.62.44c-.64,1.25-1.76,1.95-3.11,1.95-2.03,0-3.49-1.44-3.49-3.43s1.4-3.42,3.38-3.42,3.47,1.44,3.47,3.5v.35h-5.02Zm3.21-1.01c-.15-.84-.76-1.36-1.63-1.36s-1.41.48-1.58,1.36h3.21Z"/>
            <path class="cls-3" d="m190.1,93.17v.79c.47-.73.94-1.01,1.74-1.01.61,0,1.19.22,1.58.6.42.42.57.93.57,1.98v4.06h-1.76v-3.97c0-.36-.04-.57-.15-.75-.17-.26-.5-.43-.84-.43-.68,0-1.13.51-1.13,1.26v3.89h-1.76v-6.41h1.76Z"/>
            <path class="cls-3" d="m197.62,97.7c0,.3.11.39.5.42h.3v1.47h-1.4c-.86-.03-1.18-.37-1.16-1.22v-3.74h-.73v-1.48h.73v-1.72h1.76v1.72h.8v1.48h-.8v3.07Z"/>
            <path class="cls-3" d="m201.13,96.8c.15.89.8,1.44,1.67,1.44.65,0,1.2-.32,1.48-.83l1.62.44c-.64,1.25-1.76,1.95-3.11,1.95-2.03,0-3.49-1.44-3.49-3.43s1.4-3.42,3.38-3.42,3.47,1.44,3.47,3.5v.35h-5.02Zm3.21-1.01c-.15-.84-.76-1.36-1.63-1.36s-1.41.48-1.58,1.36h3.21Z"/>
            <path class="cls-3" d="m209.26,93.17v.94c.18-.47.3-.66.57-.86.28-.19.65-.3,1.04-.3.04,0,.11,0,.21.01v1.8c-.14-.01-.28-.03-.37-.03-.48,0-.93.22-1.18.58-.21.29-.26.57-.26,1.18v3.09h-1.76v-6.41h1.76Z"/>
            <path class="cls-3" d="m218.31,99.58h-1.76v-4.93h-.71v-1.48h.71v-.36c0-1.72.84-2.52,2.6-2.46v1.62c-.61.07-.84.3-.84.84v.36h.84v1.48h-.84v4.93Z"/>
            <path class="cls-3" d="m226.93,96.44c0,1.88-1.54,3.36-3.5,3.36s-3.47-1.43-3.47-3.42,1.43-3.43,3.5-3.43,3.47,1.47,3.47,3.49Zm-5.2-.06c0,1.11.69,1.85,1.72,1.85s1.72-.76,1.72-1.83c0-1.16-.65-1.88-1.7-1.88s-1.73.73-1.73,1.85Z"/>
            <path class="cls-3" d="m230.08,93.17v.94c.18-.47.3-.66.57-.86.28-.19.65-.3,1.04-.3.04,0,.11,0,.21.01v1.8c-.14-.01-.28-.03-.37-.03-.48,0-.93.22-1.18.58-.21.29-.26.57-.26,1.18v3.09h-1.76v-6.41h1.76Z"/>
            <path class="cls-3" d="m242.17,90.35h1.95l-2.91,9.23h-2.02l-2.8-9.23h1.95l1.87,6.19,1.95-6.19Z"/>
            <path class="cls-3" d="m249.59,93.17h1.76v6.41h-1.76v-.89c-.6.76-1.29,1.11-2.23,1.11-1.8,0-3.09-1.4-3.09-3.35s1.36-3.5,3.23-3.5c.87,0,1.47.3,2.09,1.04v-.82Zm-3.43,3.25c0,1.12.73,1.97,1.69,1.97s1.77-.91,1.77-2.02-.72-1.94-1.76-1.94-1.7.82-1.7,1.99Z"/>
            <path class="cls-3" d="m258.6,98.85c-.73.66-1.5.96-2.46.96-1.95,0-3.39-1.44-3.39-3.39s1.41-3.46,3.4-3.46c.96,0,1.74.33,2.56,1.07l-1.18,1.07c-.39-.39-.8-.57-1.31-.57-.97,0-1.69.79-1.69,1.84s.73,1.88,1.76,1.88c.46,0,.79-.14,1.25-.54l1.07,1.15Z"/>
            <path class="cls-3" d="m264.97,98.85c-.73.66-1.5.96-2.46.96-1.95,0-3.39-1.44-3.39-3.39s1.41-3.46,3.4-3.46c.96,0,1.74.33,2.56,1.07l-1.18,1.07c-.39-.39-.8-.57-1.31-.57-.97,0-1.69.79-1.69,1.84s.73,1.88,1.76,1.88c.46,0,.79-.14,1.25-.54l1.07,1.15Z"/>
            <path class="cls-3" d="m267.95,91.36c0,.54-.42.95-.97.95s-.98-.42-.98-.97.42-.98.98-.98.97.42.97,1Zm-.1,8.22h-1.76v-6.41h1.76v6.41Z"/>
            <path class="cls-3" d="m271.44,93.17v.79c.47-.73.94-1.01,1.74-1.01.61,0,1.19.22,1.58.6.42.42.57.93.57,1.98v4.06h-1.76v-3.97c0-.36-.04-.57-.15-.75-.17-.26-.5-.43-.84-.43-.68,0-1.14.51-1.14,1.26v3.89h-1.76v-6.41h1.76Z"/>
            <path class="cls-3" d="m283.67,96.44c0,1.88-1.54,3.36-3.5,3.36s-3.47-1.43-3.47-3.42,1.43-3.43,3.5-3.43,3.47,1.47,3.47,3.49Zm-5.2-.06c0,1.11.69,1.85,1.72,1.85s1.72-.76,1.72-1.83c0-1.16-.65-1.88-1.7-1.88s-1.73.73-1.73,1.85Z"/>
            <path class="cls-3" d="m285.06,99.58v-9.23h1.76v9.23h-1.76Z"/>
            <path class="cls-3" d="m295.2,96.44c0,1.88-1.54,3.36-3.5,3.36s-3.47-1.43-3.47-3.42,1.43-3.43,3.5-3.43,3.47,1.47,3.47,3.49Zm-5.2-.06c0,1.11.69,1.85,1.72,1.85s1.72-.76,1.72-1.83c0-1.16-.65-1.88-1.7-1.88s-1.73.73-1.73,1.85Z"/>
            <path class="cls-3" d="m301.36,93.17h1.73v5.94c0,1.31-.25,2.08-.86,2.67-.62.62-1.56.97-2.66.97-1.25,0-2.27-.42-3.14-1.27l1.09-1.11c.57.61,1.18.89,1.98.89,1.18,0,1.85-.69,1.85-1.9v-.65c-.58.73-1.33,1.09-2.26,1.09-1.76,0-3.03-1.43-3.03-3.38,0-2.08,1.29-3.47,3.21-3.47.9,0,1.52.3,2.08,1.01v-.79Zm-3.42,3.17c0,1.11.72,1.9,1.73,1.9.51,0,1.01-.22,1.33-.6.21-.25.33-.65.33-1.13,0-.69-.15-1.16-.47-1.5-.32-.3-.76-.5-1.2-.5-1.01,0-1.72.76-1.72,1.83Z"/>
            <path class="cls-3" d="m308.68,93.17h1.87l-3.61,9.33h-1.88l1.2-3.07-2.24-6.26h1.87l1.3,3.81,1.5-3.81Z"/>
          </g>
        </g>
      </g>
    </g>
    <polygon class="cls-3" points="335.21 122.29 335.21 3.21 335.21 0 332 0 332 3.21 332 122.29 332 125.5 335.21 125.5 335.21 122.29"/>
    <g>
      <path class="cls-3" d="m353.29,37.13h2.63c1.5,0,2.52.31,3.34,1.03.95.83,1.46,2.05,1.46,3.51s-.53,2.82-1.47,3.67c-.77.7-1.88,1.07-3.21,1.07h-2.74v-9.28Zm1.91,7.71h.36c1.02,0,1.64-.18,2.18-.64.67-.57,1.04-1.45,1.04-2.48,0-1.85-1.13-3.05-2.89-3.05h-.7v6.16Z"/>
      <path class="cls-3" d="m367.09,39.97h1.77v6.44h-1.77v-.89c-.6.77-1.29,1.11-2.24,1.11-1.81,0-3.1-1.41-3.1-3.37s1.36-3.52,3.24-3.52c.88,0,1.47.31,2.1,1.04v-.82Zm-3.45,3.27c0,1.13.74,1.98,1.7,1.98s1.78-.92,1.78-2.03-.72-1.95-1.77-1.95-1.71.82-1.71,2Z"/>
      <path class="cls-3" d="m370.59,46.41v-9.28h1.77v9.28h-1.77Z"/>
      <path class="cls-3" d="m375.88,40.67c.54-.64,1.07-.92,1.77-.92.56,0,1.17.24,1.54.6.42.39.57.89.57,1.82v4.24h-1.77v-3.99c0-.72-.38-1.18-.96-1.18-.31,0-.58.11-.79.32-.28.26-.36.51-.36,1.02v3.84h-1.77v-9.28h1.77v3.53Z"/>
      <path class="cls-3" d="m388.07,43.25c0,1.89-1.54,3.38-3.52,3.38s-3.49-1.43-3.49-3.44,1.43-3.45,3.52-3.45,3.49,1.47,3.49,3.51Zm-5.23-.06c0,1.11.7,1.86,1.73,1.86s1.73-.77,1.73-1.84c0-1.17-.65-1.89-1.71-1.89s-1.74.74-1.74,1.86Z"/>
      <path class="cls-3" d="m394.9,39.97v4.08c0,.95-.19,1.47-.72,1.92-.51.43-1.24.67-2.09.67-.89,0-1.66-.25-2.16-.71-.46-.42-.68-1.03-.68-1.88v-4.08h1.77v3.96c0,.72.43,1.21,1.07,1.21s1.04-.42,1.04-1.1v-4.08h1.77Z"/>
      <path class="cls-3" d="m399.28,41.84v-.11c0-.39-.35-.67-.82-.67-.43,0-.71.24-.71.58,0,.17.07.33.18.42.19.15.21.15,1.1.43,1.45.45,2.02,1.02,2.02,2.06,0,1.25-1,2.09-2.5,2.09s-2.46-.78-2.53-2.11h1.7c.08.56.33.81.85.81.42,0,.71-.25.71-.61,0-.39-.25-.57-1.2-.86-1.39-.42-2.02-1.04-2.02-2.06,0-1.22.99-2.04,2.49-2.04s2.36.78,2.41,2.09h-1.67Z"/>
      <path class="cls-3" d="m404.22,38.15c0,.54-.42.96-.97.96s-.99-.42-.99-.97.42-.99.99-.99.97.42.97,1Zm-.1,8.26h-1.77v-6.44h1.77v6.44Z"/>
      <path class="cls-3" d="m407.29,43.62c.15.89.81,1.45,1.68,1.45.65,0,1.21-.32,1.49-.83l1.63.45c-.64,1.25-1.77,1.96-3.13,1.96-2.04,0-3.51-1.45-3.51-3.45s1.41-3.44,3.39-3.44,3.49,1.45,3.49,3.52v.35h-5.05Zm3.23-1.02c-.15-.85-.76-1.36-1.64-1.36s-1.42.49-1.59,1.36h3.23Z"/>
      <path class="cls-3" d="m419.63,42.57c0,.86.11,1.34.42,1.7.28.35.78.57,1.29.57.54,0,1.07-.25,1.35-.64.28-.38.36-.78.36-1.64v-5.43h1.92v5.37c0,1.36-.29,2.31-.92,3-.63.7-1.6,1.09-2.69,1.09s-2.16-.42-2.81-1.15c-.6-.67-.83-1.5-.83-2.94v-5.37h1.91v5.44Z"/>
      <path class="cls-3" d="m428.48,39.97v.79c.47-.74.95-1.02,1.75-1.02.61,0,1.2.22,1.59.6.42.42.57.93.57,1.99v4.08h-1.77v-3.99c0-.36-.04-.57-.15-.75-.17-.26-.5-.43-.85-.43-.68,0-1.14.51-1.14,1.27v3.91h-1.77v-6.44h1.77Z"/>
      <path class="cls-3" d="m435.96,38.15c0,.54-.42.96-.97.96s-.99-.42-.99-.97.42-.99.99-.99.97.42.97,1Zm-.1,8.26h-1.77v-6.44h1.77v6.44Z"/>
      <path class="cls-3" d="m443.21,39.97l-2.35,6.44h-1.82l-2.32-6.44h1.84l1.42,3.84,1.43-3.84h1.81Z"/>
      <path class="cls-3" d="m445.35,43.62c.15.89.81,1.45,1.68,1.45.65,0,1.21-.32,1.49-.83l1.63.45c-.64,1.25-1.77,1.96-3.13,1.96-2.04,0-3.51-1.45-3.51-3.45s1.41-3.44,3.39-3.44,3.49,1.45,3.49,3.52v.35h-5.05Zm3.23-1.02c-.15-.85-.76-1.36-1.64-1.36s-1.42.49-1.59,1.36h3.23Z"/>
      <path class="cls-3" d="m453.43,39.97v.95c.18-.47.31-.67.57-.86.28-.19.65-.31,1.04-.31.04,0,.11,0,.21.01v1.81c-.14-.01-.28-.03-.38-.03-.49,0-.93.22-1.18.58-.21.29-.26.57-.26,1.18v3.1h-1.77v-6.44h1.77Z"/>
      <path class="cls-3" d="m459.21,41.84v-.11c0-.39-.35-.67-.82-.67-.43,0-.71.24-.71.58,0,.17.07.33.18.42.19.15.21.15,1.1.43,1.45.45,2.02,1.02,2.02,2.06,0,1.25-1,2.09-2.5,2.09s-2.46-.78-2.53-2.11h1.7c.08.56.33.81.85.81.42,0,.71-.25.71-.61,0-.39-.25-.57-1.2-.86-1.39-.42-2.02-1.04-2.02-2.06,0-1.22.99-2.04,2.49-2.04s2.37.78,2.41,2.09h-1.67Z"/>
      <path class="cls-3" d="m464.14,38.15c0,.54-.42.96-.97.96s-.99-.42-.99-.97.42-.99.99-.99.97.42.97,1Zm-.1,8.26h-1.77v-6.44h1.77v6.44Z"/>
      <path class="cls-3" d="m467.65,44.52c0,.31.11.39.5.42h.31v1.47h-1.4c-.86-.03-1.18-.38-1.17-1.22v-3.76h-.74v-1.49h.74v-1.73h1.77v1.73h.81v1.49h-.81v3.09Z"/>
      <path class="cls-3" d="m473.73,39.97h1.88l-3.63,9.38h-1.89l1.21-3.09-2.25-6.29h1.88l1.31,3.83,1.5-3.83Z"/>
      <path class="cls-3" d="m355.2,67.28h-1.91v-9.28h1.91v9.28Z"/>
      <path class="cls-3" d="m366.13,58h1.99l-2.59,9.28h-1.92l-1.46-6.08-1.46,6.08h-1.92l-2.53-9.28h2.02l1.49,5.86,1.5-5.86h1.89l1.45,5.95,1.54-5.95Z"/>
      <path class="cls-3" d="m371.07,67.28h-1.91v-9.28h1.91v4.03l2.63-4.03h2.21l-3,4.47,3,4.81h-2.24l-2.6-4.13v4.13Z"/>
      <path class="cls-3" d="m383.07,67.28h-1.91v-9.28h1.91v3.92h3.52v-3.92h1.91v9.28h-1.91v-3.8h-3.52v3.8Z"/>
      <path class="cls-3" d="m391.77,64.48c.15.89.81,1.45,1.68,1.45.65,0,1.21-.32,1.49-.83l1.63.45c-.64,1.25-1.77,1.96-3.13,1.96-2.05,0-3.51-1.45-3.51-3.45s1.4-3.44,3.39-3.44,3.49,1.45,3.49,3.52v.35h-5.05Zm3.23-1.02c-.15-.85-.77-1.36-1.64-1.36s-1.42.49-1.59,1.36h3.23Z"/>
      <path class="cls-3" d="m403.02,60.84h1.77v6.44h-1.77v-.89c-.6.76-1.29,1.11-2.24,1.11-1.81,0-3.1-1.41-3.1-3.37s1.36-3.52,3.24-3.52c.88,0,1.47.31,2.1,1.04v-.82Zm-3.45,3.27c0,1.13.74,1.98,1.7,1.98s1.78-.92,1.78-2.03-.72-1.95-1.77-1.95-1.71.82-1.71,2Z"/>
      <path class="cls-3" d="m406.53,67.28v-9.28h1.77v9.28h-1.77Z"/>
      <path class="cls-3" d="m411.9,65.39c0,.31.11.39.5.42h.31v1.47h-1.41c-.86-.03-1.18-.38-1.17-1.22v-3.76h-.74v-1.49h.74v-1.73h1.77v1.73h.81v1.49h-.81v3.09Z"/>
      <path class="cls-3" d="m415.82,61.53c.54-.64,1.07-.92,1.77-.92.56,0,1.17.24,1.54.6.42.39.57.89.57,1.82v4.24h-1.77v-3.99c0-.72-.38-1.18-.96-1.18-.31,0-.58.11-.79.32-.28.26-.36.51-.36,1.02v3.84h-1.77v-9.28h1.77v3.53Z"/>
      <path class="cls-3" d="m355.2,88.15h-1.91v-9.28h1.88l3.88,5.79v-5.79h1.91v9.28h-1.86l-3.9-5.87v5.87Z"/>
      <path class="cls-3" d="m369.44,84.99c0,1.89-1.54,3.38-3.52,3.38s-3.49-1.43-3.49-3.44,1.43-3.45,3.52-3.45,3.49,1.47,3.49,3.51Zm-5.23-.06c0,1.11.7,1.86,1.73,1.86s1.73-.76,1.73-1.84c0-1.17-.65-1.89-1.71-1.89s-1.74.74-1.74,1.86Z"/>
      <path class="cls-3" d="m376.19,81.7l-2.35,6.44h-1.82l-2.32-6.44h1.84l1.42,3.84,1.43-3.84h1.81Z"/>
      <path class="cls-3" d="m381.85,81.7h1.77v6.44h-1.77v-.89c-.6.76-1.29,1.11-2.24,1.11-1.81,0-3.1-1.41-3.1-3.37s1.36-3.52,3.24-3.52c.88,0,1.47.31,2.1,1.04v-.82Zm-3.45,3.27c0,1.13.74,1.98,1.7,1.98s1.78-.92,1.78-2.03-.72-1.95-1.77-1.95-1.71.82-1.71,2Z"/>
      <path class="cls-3" d="m390.93,85.43v.13c0,.63.54,1.08,1.27,1.08s1.22-.43,1.22-.99c0-.29-.14-.56-.38-.74-.24-.18-.4-.25-1.13-.51-2.03-.72-2.75-1.49-2.75-2.91,0-1.68,1.24-2.81,3.06-2.81s2.98,1.06,3.13,2.84h-1.92c-.07-.78-.46-1.15-1.21-1.15-.68,0-1.14.39-1.14.97,0,.38.19.67.57.88.25.14.4.21,1.09.46,1.02.38,1.53.64,1.93,1.03.49.46.74,1.08.74,1.79,0,1.7-1.28,2.82-3.2,2.82s-3.14-1.11-3.13-2.89h1.85Z"/>
      <path class="cls-3" d="m402.3,87.41c-.74.67-1.5.96-2.48.96-1.96,0-3.41-1.45-3.41-3.41s1.42-3.48,3.42-3.48c.96,0,1.75.33,2.57,1.07l-1.18,1.07c-.39-.39-.81-.57-1.32-.57-.97,0-1.7.79-1.7,1.85s.74,1.89,1.77,1.89c.46,0,.79-.14,1.25-.54l1.07,1.15Z"/>
      <path class="cls-3" d="m409.74,84.99c0,1.89-1.54,3.38-3.52,3.38s-3.49-1.43-3.49-3.44,1.43-3.45,3.52-3.45,3.49,1.47,3.49,3.51Zm-5.23-.06c0,1.11.7,1.86,1.73,1.86s1.73-.76,1.73-1.84c0-1.17-.65-1.89-1.71-1.89s-1.74.74-1.74,1.86Z"/>
      <path class="cls-3" d="m412.88,86.25c0,.31.11.39.5.42h.31v1.47h-1.41c-.86-.03-1.18-.38-1.17-1.22v-3.76h-.74v-1.49h.74v-1.73h1.77v1.73h.81v1.49h-.81v3.09Z"/>
      <path class="cls-3" d="m416.88,79.88c0,.54-.42.96-.97.96s-.99-.42-.99-.97.42-.99.99-.99.97.42.97,1Zm-.1,8.26h-1.77v-6.44h1.77v6.44Z"/>
      <path class="cls-3" d="m423.47,81.7h1.77v6.44h-1.77v-.89c-.6.76-1.29,1.11-2.24,1.11-1.81,0-3.1-1.41-3.1-3.37s1.36-3.52,3.24-3.52c.88,0,1.47.31,2.1,1.04v-.82Zm-3.45,3.27c0,1.13.74,1.98,1.7,1.98s1.78-.92,1.78-2.03-.72-1.95-1.77-1.95-1.71.82-1.71,2Z"/>
      <path class="cls-3" d="m433.15,88.15h-1.91v-9.28h1.91v3.92h3.52v-3.92h1.91v9.28h-1.91v-3.8h-3.52v3.8Z"/>
      <path class="cls-3" d="m441.85,85.35c.15.89.81,1.45,1.68,1.45.65,0,1.21-.32,1.49-.83l1.63.45c-.64,1.25-1.77,1.96-3.13,1.96-2.04,0-3.51-1.45-3.51-3.45s1.41-3.44,3.39-3.44,3.49,1.45,3.49,3.52v.35h-5.05Zm3.23-1.02c-.15-.85-.76-1.36-1.64-1.36s-1.42.49-1.59,1.36h3.23Z"/>
      <path class="cls-3" d="m453.1,81.7h1.77v6.44h-1.77v-.89c-.6.76-1.29,1.11-2.24,1.11-1.81,0-3.1-1.41-3.1-3.37s1.36-3.52,3.24-3.52c.88,0,1.47.31,2.1,1.04v-.82Zm-3.45,3.27c0,1.13.74,1.98,1.7,1.98s1.78-.92,1.78-2.03-.72-1.95-1.77-1.95-1.71.82-1.71,2Z"/>
      <path class="cls-3" d="m456.6,88.15v-9.28h1.77v9.28h-1.77Z"/>
      <path class="cls-3" d="m461.97,86.25c0,.31.11.39.5.42h.31v1.47h-1.4c-.86-.03-1.18-.38-1.17-1.22v-3.76h-.74v-1.49h.74v-1.73h1.77v1.73h.81v1.49h-.81v3.09Z"/>
      <path class="cls-3" d="m465.9,82.4c.54-.64,1.07-.92,1.77-.92.56,0,1.17.24,1.54.6.42.39.57.89.57,1.82v4.24h-1.77v-3.99c0-.72-.38-1.18-.96-1.18-.31,0-.58.11-.79.32-.28.26-.36.51-.36,1.02v3.84h-1.77v-9.28h1.77v3.53Z"/>
    </g>
  </g>
</svg>