<svg width="262" height="143" viewBox="0 0 262 143" fill="none" xmlns="http://www.w3.org/2000/svg">
<g clip-path="url(#clip0_82_1635)">
<path d="M20.0563 30.0073L29.2488 39.2123V20.8022L20.0563 30.0073Z" fill="white"/>
<path d="M29.2488 20.8022V39.2123L38.4413 30.0073L29.2488 20.8022Z" fill="white"/>
<path d="M0 14.9443V24.9553L16.5213 41.5538V31.512L0 14.9443Z" fill="white"/>
<path d="M41.9763 31.512V41.5538L58.4976 24.9862V14.9443L41.9763 31.512Z" fill="white"/>
<path d="M20.0563 58.4588L29.2488 67.6638V44.2329L20.0563 35.0278V58.4588Z" fill="white"/>
<path d="M49.3026 0.719281L31.7666 18.2793L40.9593 27.4846L58.4954 9.92459L49.3026 0.719281Z" fill="white"/>
<path d="M9.19308 0.716811L0.000320435 9.92212L17.5481 27.4939L26.7409 18.2886L9.19308 0.716811Z" fill="white"/>
<path d="M29.2631 44.2329V67.6639L38.4532 58.4613V35.0303L29.2631 44.2329Z" fill="white"/>
<path d="M101.749 12.4242C106.746 12.4242 111.103 15.4316 113.406 19.8914L122.437 10.9242C117.605 4.71456 110.068 0.718262 101.599 0.718262C87.0199 0.718262 75.1993 12.555 75.1993 27.1542C75.1993 41.7534 87.0199 53.5901 101.599 53.5901C109.987 53.5901 117.463 49.6723 122.299 43.5625L113.389 34.455C111.081 38.8911 106.734 41.8818 101.751 41.8818C94.3511 41.8818 88.3542 35.287 88.3542 27.1542C88.3542 19.0213 94.3511 12.4266 101.751 12.4266L101.749 12.4242Z" fill="white"/>
<path d="M151.657 12.4242C156.654 12.4242 161.011 15.4316 163.314 19.8914L172.345 10.9242C167.514 4.71456 159.976 0.718262 151.507 0.718262C136.928 0.718262 125.107 12.555 125.107 27.1542C125.107 41.7534 136.928 53.5901 151.507 53.5901C159.895 53.5901 167.371 49.6723 172.207 43.5625L163.297 34.455C160.99 38.8911 156.643 41.8818 151.659 41.8818C144.259 41.8818 138.262 35.287 138.262 27.1542C138.262 19.0213 144.259 12.4266 151.659 12.4266L151.657 12.4242Z" fill="white"/>
<path d="M246.849 1.34106L234.285 38.2373L225.935 13.7151H211.361L224.672 52.6819H243.9L262 1.34106H246.849Z" fill="white"/>
<path d="M177.893 1.34106V52.6819H191.114V33.4232H209.426V21.0444H191.114V13.7151H211.612L207.341 1.34106H177.893Z" fill="white"/>
<path d="M221.721 1.34106H209.302H207.189L211.361 13.7151H213.96H225.935L221.721 1.34106Z" fill="white"/>
<path d="M83.5372 66.9056C82.5923 67.79 81.7067 68.1466 80.4936 68.1466C79.2804 68.1466 78.2833 67.7282 77.5592 66.9175C76.8588 66.1425 76.4552 65.037 76.4552 63.9054C76.4552 61.4092 78.1503 59.6262 80.5197 59.6262C81.7851 59.6262 82.6445 59.9828 83.6131 60.929L82.521 62.0345C81.8587 61.433 81.2936 61.1858 80.6052 61.1858C79.1688 61.1858 78.1622 62.2912 78.1622 63.865C78.1622 65.4388 79.2187 66.5823 80.6906 66.5823C81.4385 66.5823 82.0154 66.3232 82.521 65.7455L83.5395 66.9009L83.5372 66.9056Z" fill="white"/>
<path d="M88.8789 62.2958H90.4386V67.9871H88.8789V67.2002C88.3518 67.8754 87.7369 68.1844 86.9012 68.1844C85.3059 68.1844 84.1639 66.9435 84.1639 65.2104C84.1639 63.4773 85.3676 62.1008 87.0247 62.1008C87.7986 62.1008 88.3257 62.3718 88.8789 63.0232V62.2981V62.2958ZM85.8353 65.1842C85.8353 66.1803 86.4858 66.9292 87.3333 66.9292C88.1809 66.9292 88.905 66.1185 88.905 65.1343C88.905 64.1501 88.2663 63.4131 87.3452 63.4131C86.4241 63.4131 85.8353 64.1382 85.8353 65.1842Z" fill="white"/>
<path d="M93.6057 62.2959V62.9973C94.0235 62.3459 94.4414 62.0986 95.1536 62.0986C95.6949 62.0986 96.2101 62.296 96.5543 62.6264C96.9223 62.9949 97.0576 63.449 97.0576 64.3832V67.9849H95.4978V64.4569C95.4978 64.1384 95.4622 63.953 95.3625 63.7937C95.2153 63.5607 94.9209 63.4133 94.6147 63.4133C94.014 63.4133 93.6081 63.8674 93.6081 64.533V67.9873H92.0483V62.2959H93.6081H93.6057Z" fill="white"/>
<path d="M102.998 62.2958H104.557V67.9871H102.998V67.2002C102.471 67.8754 101.856 68.1844 101.02 68.1844C99.4246 68.1844 98.2826 66.9435 98.2826 65.2104C98.2826 63.4773 99.4863 62.1008 101.143 62.1008C101.917 62.1008 102.444 62.3718 102.998 63.0232V62.2981V62.2958ZM99.954 65.1842C99.954 66.1803 100.604 66.9292 101.452 66.9292C102.3 66.9292 103.024 66.1185 103.024 65.1343C103.024 64.1501 102.385 63.4131 101.464 63.4131C100.543 63.4131 99.954 64.1382 99.954 65.1842Z" fill="white"/>
<path d="M110.523 59.788H112.083V67.9874H110.523V67.2386C110.032 67.9137 109.493 68.1848 108.619 68.1848C106.939 68.1848 105.809 66.9795 105.809 65.1965C105.809 64.2384 106.127 63.4396 106.718 62.8857C107.259 62.3817 107.945 62.0988 108.646 62.0988C109.419 62.0988 109.973 62.3437 110.523 62.9213V59.7856V59.788ZM107.466 65.2083C107.466 66.1926 108.116 66.9295 108.999 66.9295C109.882 66.9295 110.521 66.1807 110.521 65.1965C110.521 64.1647 109.882 63.4135 109.011 63.4135C108.14 63.4135 107.463 64.1623 107.463 65.2083H107.466Z" fill="white"/>
<path d="M115.336 60.6869C115.336 61.1671 114.968 61.5356 114.476 61.5356C113.985 61.5356 113.605 61.1671 113.605 60.675C113.605 60.1829 113.973 59.8025 114.476 59.8025C114.98 59.8025 115.336 60.171 115.336 60.6869ZM115.25 67.99H113.691V62.2987H115.25V67.99Z" fill="white"/>
<path d="M121.228 62.2958H122.788V67.9871H121.228V67.2002C120.701 67.8754 120.086 68.1844 119.251 68.1844C117.655 68.1844 116.513 66.9435 116.513 65.2104C116.513 63.4773 117.717 62.1008 119.374 62.1008C120.148 62.1008 120.675 62.3718 121.228 63.0232V62.2981V62.2958ZM118.185 65.1842C118.185 66.1803 118.835 66.9292 119.683 66.9292C120.53 66.9292 121.254 66.1185 121.254 65.1343C121.254 64.1501 120.616 63.4131 119.695 63.4131C118.773 63.4131 118.185 64.1382 118.185 65.1842Z" fill="white"/>
<path d="M125.955 62.2959V62.9973C126.373 62.3459 126.791 62.0986 127.503 62.0986C128.044 62.0986 128.559 62.296 128.904 62.6264C129.272 62.9949 129.407 63.449 129.407 64.3832V67.9849H127.847V64.4569C127.847 64.1384 127.809 63.953 127.712 63.7937C127.565 63.5607 127.27 63.4133 126.964 63.4133C126.363 63.4133 125.957 63.8674 125.957 64.533V67.9873H124.398V62.2959H125.957H125.955Z" fill="white"/>
<path d="M141.51 66.9056C140.565 67.79 139.68 68.1466 138.467 68.1466C137.253 68.1466 136.256 67.7282 135.532 66.9175C134.832 66.1425 134.428 65.037 134.428 63.9054C134.428 61.4092 136.123 59.6262 138.493 59.6262C139.758 59.6262 140.617 59.9828 141.586 60.929L140.494 62.0345C139.832 61.433 139.267 61.1858 138.578 61.1858C137.142 61.1858 136.135 62.2912 136.135 63.865C136.135 65.4388 137.192 66.5823 138.664 66.5823C139.411 66.5823 139.991 66.3232 140.492 65.7455L141.51 66.9009V66.9056Z" fill="white"/>
<path d="M143.706 65.5172C143.841 66.3041 144.418 66.7962 145.192 66.7962C145.769 66.7962 146.261 66.5133 146.505 66.0593L147.941 66.4515C147.376 67.557 146.382 68.1846 145.178 68.1846C143.374 68.1846 142.085 66.9056 142.085 65.1345C142.085 63.3634 143.324 62.0986 145.081 62.0986C146.838 62.0986 148.162 63.3776 148.162 65.2082L148.15 65.5149H143.706V65.5172ZM146.555 64.621C146.42 63.8697 145.881 63.4157 145.107 63.4157C144.333 63.4157 143.856 63.846 143.709 64.621H146.557H146.555Z" fill="white"/>
<path d="M150.914 62.2959V62.9973C151.332 62.3459 151.75 62.0986 152.462 62.0986C153.003 62.0986 153.518 62.296 153.862 62.6264C154.23 62.9949 154.366 63.449 154.366 64.3832V67.9849H152.806V64.4569C152.806 64.1384 152.768 63.953 152.671 63.7937C152.523 63.5607 152.229 63.4133 151.92 63.4133C151.32 63.4133 150.914 63.8674 150.914 64.533V67.9873H149.354V62.2959H150.914Z" fill="white"/>
<path d="M157.58 66.316C157.58 66.587 157.678 66.6607 158.022 66.6845H158.293V67.9873H157.053C156.291 67.9635 156.009 67.6544 156.023 66.9056V63.5868H155.372V62.2722H156.023V60.7483H157.583V62.2722H158.295V63.5868H157.583V66.316H157.58Z" fill="white"/>
<path d="M160.698 65.5172C160.833 66.3041 161.41 66.7962 162.184 66.7962C162.761 66.7962 163.252 66.5133 163.497 66.0593L164.933 66.4515C164.368 67.557 163.373 68.1846 162.169 68.1846C160.365 68.1846 159.076 66.9056 159.076 65.1345C159.076 63.3634 160.315 62.0986 162.072 62.0986C163.829 62.0986 165.154 63.3776 165.154 65.2082L165.142 65.5149H160.698V65.5172ZM163.546 64.621C163.411 63.8697 162.872 63.4157 162.098 63.4157C161.324 63.4157 160.847 63.846 160.7 64.621H163.549H163.546Z" fill="white"/>
<path d="M167.905 62.2959V63.1328C168.064 62.7144 168.176 62.5432 168.409 62.3696C168.653 62.1985 168.985 62.0986 169.33 62.0986C169.368 62.0986 169.427 62.0986 169.515 62.1105V63.7081C169.391 63.6962 169.27 63.6843 169.183 63.6843C168.753 63.6843 168.361 63.8816 168.138 64.2002C167.953 64.4593 167.905 64.7042 167.905 65.2462V67.9873H166.345V62.2959H167.905Z" fill="white"/>
<path d="M175.934 67.9873H174.375V63.6107H173.748V62.296H174.375V61.9774C174.375 60.4536 175.122 59.7404 176.682 59.7903V61.2286C176.141 61.2904 175.934 61.4996 175.934 61.9774V62.296H176.682V63.6107H175.934V67.9873Z" fill="white"/>
<path d="M183.581 65.1961C183.581 66.8674 182.219 68.1844 180.476 68.1844C178.733 68.1844 177.394 66.9173 177.394 65.1486C177.394 63.3798 178.66 62.1008 180.5 62.1008C182.34 62.1008 183.581 63.4036 183.581 65.1985V65.1961ZM178.966 65.1462C178.966 66.1304 179.581 66.7937 180.488 66.7937C181.395 66.7937 182.01 66.1185 182.01 65.17C182.01 64.1382 181.433 63.4987 180.5 63.4987C179.567 63.4987 178.966 64.1501 178.966 65.1462Z" fill="white"/>
<path d="M186.369 62.2959V63.1328C186.528 62.7144 186.639 62.5432 186.872 62.3696C187.116 62.1985 187.449 62.0986 187.793 62.0986C187.831 62.0986 187.89 62.0986 187.978 62.1105V63.7081C187.855 63.6962 187.734 63.6843 187.646 63.6843C187.216 63.6843 186.824 63.8816 186.601 64.2002C186.416 64.4593 186.369 64.7042 186.369 65.2462V67.9873H184.809V62.2959H186.369Z" fill="white"/>
<path d="M197.099 59.7878H198.83L196.252 67.9873H194.459L191.979 59.7878H193.709L195.366 65.2819L197.097 59.7878H197.099Z" fill="white"/>
<path d="M203.68 62.2958H205.24V67.9871H203.68V67.2002C203.153 67.8754 202.538 68.1844 201.703 68.1844C200.107 68.1844 198.965 66.9435 198.965 65.2104C198.965 63.4773 200.169 62.1008 201.826 62.1008C202.6 62.1008 203.127 62.3718 203.68 63.0232V62.2981V62.2958ZM200.637 65.1842C200.637 66.1803 201.287 66.9292 202.135 66.9292C202.982 66.9292 203.707 66.1185 203.707 65.1343C203.707 64.1501 203.068 63.4131 202.147 63.4131C201.226 63.4131 200.637 64.1382 200.637 65.1842Z" fill="white"/>
<path d="M211.672 67.3359C211.021 67.9255 210.345 68.1846 209.485 68.1846C207.754 68.1846 206.477 66.9056 206.477 65.1725C206.477 63.4394 207.728 62.0986 209.497 62.0986C210.345 62.0986 211.045 62.3934 211.769 63.0448L210.724 63.991C210.38 63.6463 210.012 63.487 209.559 63.487C208.699 63.487 208.061 64.1883 208.061 65.1226C208.061 66.0569 208.711 66.7939 209.62 66.7939C210.026 66.7939 210.321 66.6702 210.724 66.3136L211.669 67.3335L211.672 67.3359Z" fill="white"/>
<path d="M217.32 67.3359C216.669 67.9255 215.992 68.1846 215.133 68.1846C213.402 68.1846 212.125 66.9056 212.125 65.1725C212.125 63.4394 213.376 62.0986 215.145 62.0986C215.992 62.0986 216.693 62.3934 217.417 63.0448L216.372 63.991C216.028 63.6463 215.66 63.487 215.207 63.487C214.347 63.487 213.709 64.1883 213.709 65.1226C213.709 66.0569 214.359 66.7939 215.268 66.7939C215.674 66.7939 215.969 66.6702 216.372 66.3136L217.317 67.3335L217.32 67.3359Z" fill="white"/>
<path d="M219.96 60.6869C219.96 61.1671 219.592 61.5356 219.1 61.5356C218.609 61.5356 218.229 61.1671 218.229 60.675C218.229 60.1829 218.597 59.8025 219.1 59.8025C219.603 59.8025 219.96 60.171 219.96 60.6869ZM219.874 67.99H218.314V62.2987H219.874V67.99Z" fill="white"/>
<path d="M223.053 62.2959V62.9973C223.471 62.3459 223.889 62.0986 224.601 62.0986C225.142 62.0986 225.657 62.296 226.002 62.6264C226.37 62.9949 226.505 63.449 226.505 64.3832V67.9849H224.945V64.4569C224.945 64.1384 224.907 63.953 224.81 63.7937C224.663 63.5607 224.368 63.4133 224.062 63.4133C223.461 63.4133 223.055 63.8674 223.055 64.533V67.9873H221.496V62.2959H223.055H223.053Z" fill="white"/>
<path d="M233.905 65.1961C233.905 66.8674 232.542 68.1844 230.8 68.1844C229.057 68.1844 227.718 66.9173 227.718 65.1486C227.718 63.3798 228.983 62.1008 230.823 62.1008C232.663 62.1008 233.905 63.4036 233.905 65.1985V65.1961ZM229.29 65.1462C229.29 66.1304 229.905 66.7937 230.812 66.7937C231.718 66.7937 232.333 66.1185 232.333 65.17C232.333 64.1382 231.756 63.4987 230.823 63.4987C229.89 63.4987 229.29 64.1501 229.29 65.1462Z" fill="white"/>
<path d="M235.132 67.9873V59.7878H236.692V67.9873H235.132Z" fill="white"/>
<path d="M244.133 65.1961C244.133 66.8674 242.77 68.1844 241.027 68.1844C239.285 68.1844 237.946 66.9173 237.946 65.1486C237.946 63.3798 239.211 62.1008 241.051 62.1008C242.891 62.1008 244.133 63.4036 244.133 65.1985V65.1961ZM239.517 65.1462C239.517 66.1304 240.132 66.7937 241.039 66.7937C241.946 66.7937 242.561 66.1185 242.561 65.17C242.561 64.1382 241.984 63.4987 241.051 63.4987C240.118 63.4987 239.517 64.1501 239.517 65.1462Z" fill="white"/>
<path d="M249.595 62.2959H251.131V67.5689C251.131 68.7361 250.911 69.4137 250.369 69.9414C249.816 70.4954 248.983 70.802 248.012 70.802C246.906 70.802 245.999 70.4336 245.225 69.6704L246.193 68.6862C246.697 69.2282 247.238 69.4731 247.95 69.4731C248.995 69.4731 249.595 68.8574 249.595 67.79V67.2123C249.08 67.8637 248.418 68.1846 247.594 68.1846C246.034 68.1846 244.904 66.9175 244.904 65.1844C244.904 63.3396 246.046 62.0986 247.753 62.0986C248.551 62.0986 249.104 62.3696 249.595 62.9973V62.2959ZM246.564 65.1107C246.564 66.0949 247.202 66.7939 248.097 66.7939C248.551 66.7939 248.995 66.5965 249.275 66.2661C249.46 66.045 249.569 65.6884 249.569 65.2581C249.569 64.6424 249.434 64.2263 249.151 63.9292C248.869 63.6582 248.477 63.487 248.083 63.487C247.188 63.487 246.561 64.1622 246.561 65.1107H246.564Z" fill="white"/>
<path d="M256.088 62.2961H257.746L254.541 70.5811H252.872L253.94 67.852L251.95 62.2961H253.608L254.761 65.6767L256.088 62.2961Z" fill="white"/>
<path d="M32.1832 109.422H29.1112L28.6312 110.802H26.8912L29.6512 102.798H31.7032L34.4392 110.802H32.6392L32.1832 109.422ZM31.7512 108.078L30.6472 104.766L29.5312 108.078H31.7512ZM42.5949 109.17L43.5189 110.166C42.8829 110.742 42.2229 110.994 41.3829 110.994C39.6909 110.994 38.4429 109.746 38.4429 108.054C38.4429 106.302 39.6669 105.054 41.3949 105.054C42.2229 105.054 42.9069 105.342 43.6149 105.978L42.5949 106.902C42.2589 106.566 41.8989 106.41 41.4549 106.41C40.6149 106.41 39.9909 107.094 39.9909 108.006C39.9909 108.954 40.6269 109.638 41.5149 109.638C41.9109 109.638 42.1989 109.518 42.5949 109.17ZM46.9281 105.054C48.6801 105.054 49.9401 106.326 49.9401 108.078C49.9401 109.71 48.6081 110.994 46.9041 110.994C45.1521 110.994 43.8921 109.758 43.8921 108.03C43.8921 106.266 45.1281 105.054 46.9281 105.054ZM46.9281 106.422C46.0281 106.422 45.4281 107.058 45.4281 108.03C45.4281 108.99 46.0281 109.638 46.9161 109.638C47.7921 109.638 48.4041 108.978 48.4041 108.054C48.4041 107.046 47.8401 106.422 46.9281 106.422ZM52.5964 110.802H51.0724V102.798H52.5964V110.802ZM55.6316 110.802H54.1076V102.798H55.6316V110.802ZM61.4027 105.954V105.246H62.9267V110.802H61.4027V110.034C60.8867 110.694 60.2867 110.994 59.4707 110.994C57.9107 110.994 56.7947 109.782 56.7947 108.09C56.7947 106.338 57.9707 105.054 59.5907 105.054C60.3467 105.054 60.8627 105.318 61.4027 105.954ZM59.9027 106.338C59.0387 106.338 58.4267 107.046 58.4267 108.066C58.4267 109.038 59.0627 109.77 59.8907 109.77C60.7427 109.77 61.4267 108.978 61.4267 108.018C61.4267 107.034 60.8027 106.338 59.9027 106.338ZM65.9558 110.082V110.802H64.4318V102.798H65.9558V105.918C66.4838 105.306 66.9998 105.054 67.7558 105.054C69.3878 105.054 70.5518 106.302 70.5518 108.054C70.5518 109.794 69.4478 110.994 67.8278 110.994C66.9878 110.994 66.4478 110.73 65.9558 110.082ZM67.4558 106.338C66.6038 106.338 65.9318 107.106 65.9318 108.066C65.9318 109.062 66.5438 109.758 67.4198 109.758C68.3078 109.758 68.9318 109.062 68.9318 108.066C68.9318 107.082 68.2958 106.338 67.4558 106.338ZM74.3851 105.054C76.1371 105.054 77.3971 106.326 77.3971 108.078C77.3971 109.71 76.0651 110.994 74.3611 110.994C72.6091 110.994 71.3491 109.758 71.3491 108.03C71.3491 106.266 72.5851 105.054 74.3851 105.054ZM74.3851 106.422C73.4851 106.422 72.8851 107.058 72.8851 108.03C72.8851 108.99 73.4851 109.638 74.3731 109.638C75.2491 109.638 75.8611 108.978 75.8611 108.054C75.8611 107.046 75.2971 106.422 74.3851 106.422ZM78.5294 105.246H80.0534V106.062C80.2094 105.654 80.3174 105.486 80.5454 105.318C80.7854 105.15 81.1094 105.054 81.4454 105.054C81.4814 105.054 81.5414 105.054 81.6254 105.066V106.626C81.5054 106.614 81.3854 106.602 81.3014 106.602C80.8814 106.602 80.4974 106.794 80.2814 107.106C80.1014 107.358 80.0534 107.598 80.0534 108.126V110.802H78.5294V105.246ZM86.7621 105.954V105.246H88.2861V110.802H86.7621V110.034C86.2461 110.694 85.6461 110.994 84.8301 110.994C83.2701 110.994 82.1541 109.782 82.1541 108.09C82.1541 106.338 83.3301 105.054 84.9501 105.054C85.7061 105.054 86.2221 105.318 86.7621 105.954ZM85.2621 106.338C84.3981 106.338 83.7861 107.046 83.7861 108.066C83.7861 109.038 84.4221 109.77 85.2501 109.77C86.1021 109.77 86.7861 108.978 86.7861 108.018C86.7861 107.034 86.1621 106.338 85.2621 106.338ZM91.4458 106.506V109.17C91.4458 109.434 91.5418 109.506 91.8778 109.53H92.1418V110.802H90.9298C90.1858 110.778 89.9098 110.478 89.9218 109.746V106.506H89.2858V105.222H89.9218V103.734H91.4458V105.222H92.1418V106.506H91.4458ZM94.8073 105.246V110.802H93.2833V105.246H94.8073ZM94.0513 102.81C94.5433 102.81 94.8913 103.17 94.8913 103.674C94.8913 104.142 94.5313 104.502 94.0513 104.502C93.5593 104.502 93.1993 104.142 93.1993 103.662C93.1993 103.17 93.5593 102.81 94.0513 102.81ZM98.9945 105.054C100.747 105.054 102.007 106.326 102.007 108.078C102.007 109.71 100.675 110.994 98.9705 110.994C97.2185 110.994 95.9585 109.758 95.9585 108.03C95.9585 106.266 97.1945 105.054 98.9945 105.054ZM98.9945 106.422C98.0945 106.422 97.4945 107.058 97.4945 108.03C97.4945 108.99 98.0945 109.638 98.9825 109.638C99.8585 109.638 100.471 108.978 100.471 108.054C100.471 107.046 99.9065 106.422 98.9945 106.422ZM103.139 105.246H104.663V105.93C105.071 105.294 105.479 105.054 106.175 105.054C106.703 105.054 107.207 105.246 107.543 105.57C107.903 105.93 108.035 106.374 108.035 107.286V110.802H106.511V107.358C106.511 107.046 106.475 106.866 106.379 106.71C106.235 106.482 105.947 106.338 105.647 106.338C105.059 106.338 104.663 106.782 104.663 107.43V110.802H103.139V105.246ZM115.787 105.054C117.539 105.054 118.799 106.326 118.799 108.078C118.799 109.71 117.467 110.994 115.763 110.994C114.011 110.994 112.751 109.758 112.751 108.03C112.751 106.266 113.987 105.054 115.787 105.054ZM115.787 106.422C114.887 106.422 114.287 107.058 114.287 108.03C114.287 108.99 114.887 109.638 115.775 109.638C116.651 109.638 117.263 108.978 117.263 108.054C117.263 107.046 116.699 106.422 115.787 106.422ZM121.564 106.53V110.802H120.04V106.53H119.428V105.246H120.04V104.934C120.04 103.446 120.772 102.75 122.296 102.798V104.202C121.768 104.262 121.564 104.466 121.564 104.934V105.246H122.296V106.53H121.564ZM127.047 110.802V102.798H129.315C130.611 102.798 131.487 103.062 132.195 103.686C133.011 104.406 133.455 105.45 133.455 106.71C133.455 107.994 132.999 109.146 132.183 109.878C131.523 110.478 130.563 110.802 129.411 110.802H127.047ZM128.691 104.13V109.446H129.003C129.879 109.446 130.419 109.29 130.887 108.894C131.463 108.402 131.787 107.646 131.787 106.758C131.787 105.162 130.815 104.13 129.291 104.13H128.691ZM138.946 105.954V105.246H140.47V110.802H138.946V110.034C138.43 110.694 137.83 110.994 137.014 110.994C135.454 110.994 134.338 109.782 134.338 108.09C134.338 106.338 135.514 105.054 137.134 105.054C137.89 105.054 138.406 105.318 138.946 105.954ZM137.446 106.338C136.582 106.338 135.97 107.046 135.97 108.066C135.97 109.038 136.606 109.77 137.434 109.77C138.286 109.77 138.97 108.978 138.97 108.018C138.97 107.034 138.346 106.338 137.446 106.338ZM143.499 110.802H141.975V102.798H143.499V110.802ZM146.534 102.798V105.846C147.002 105.294 147.458 105.054 148.058 105.054C148.538 105.054 149.066 105.258 149.39 105.57C149.75 105.906 149.882 106.338 149.882 107.142V110.802H148.358V107.358C148.358 106.734 148.034 106.338 147.53 106.338C147.266 106.338 147.026 106.434 146.846 106.614C146.606 106.842 146.534 107.058 146.534 107.49V110.802H145.01V102.798H146.534ZM154.037 105.054C155.789 105.054 157.049 106.326 157.049 108.078C157.049 109.71 155.717 110.994 154.013 110.994C152.261 110.994 151.001 109.758 151.001 108.03C151.001 106.266 152.237 105.054 154.037 105.054ZM154.037 106.422C153.137 106.422 152.537 107.058 152.537 108.03C152.537 108.99 153.137 109.638 154.025 109.638C154.901 109.638 155.513 108.978 155.513 108.054C155.513 107.046 154.949 106.422 154.037 106.422ZM161.422 105.246H162.946V108.762C162.946 109.578 162.778 110.034 162.322 110.418C161.878 110.79 161.254 110.994 160.522 110.994C159.754 110.994 159.094 110.778 158.662 110.382C158.266 110.022 158.074 109.494 158.074 108.762V105.246H159.598V108.666C159.598 109.29 159.97 109.71 160.522 109.71C161.086 109.71 161.422 109.35 161.422 108.762V105.246ZM168.162 106.854H166.722V106.758C166.722 106.422 166.422 106.182 166.014 106.182C165.642 106.182 165.402 106.386 165.402 106.686C165.402 106.83 165.462 106.974 165.558 107.046C165.726 107.178 165.738 107.178 166.506 107.418C167.754 107.802 168.246 108.294 168.246 109.194C168.246 110.274 167.382 110.994 166.086 110.994C164.766 110.994 163.962 110.322 163.902 109.17H165.366C165.438 109.65 165.654 109.866 166.098 109.866C166.458 109.866 166.71 109.65 166.71 109.338C166.71 109.002 166.494 108.846 165.678 108.594C164.478 108.234 163.938 107.694 163.938 106.818C163.938 105.762 164.79 105.054 166.086 105.054C167.358 105.054 168.126 105.726 168.162 106.854ZM170.897 105.246V110.802H169.373V105.246H170.897ZM170.141 102.81C170.633 102.81 170.981 103.17 170.981 103.674C170.981 104.142 170.621 104.502 170.141 104.502C169.649 104.502 169.289 104.142 169.289 103.662C169.289 103.17 169.649 102.81 170.141 102.81ZM177.976 108.39H173.632C173.764 109.158 174.328 109.638 175.084 109.638C175.648 109.638 176.128 109.362 176.368 108.918L177.772 109.302C177.22 110.382 176.248 110.994 175.072 110.994C173.308 110.994 172.048 109.746 172.048 108.018C172.048 106.278 173.26 105.054 174.976 105.054C176.752 105.054 177.988 106.302 177.988 108.09L177.976 108.39ZM173.632 107.514H176.416C176.284 106.782 175.756 106.338 175 106.338C174.268 106.338 173.776 106.758 173.632 107.514ZM184.27 102.798V107.49C184.27 108.234 184.366 108.642 184.63 108.954C184.87 109.254 185.302 109.446 185.746 109.446C186.214 109.446 186.67 109.23 186.91 108.894C187.15 108.57 187.222 108.222 187.222 107.478V102.798H188.878V107.43C188.878 108.606 188.626 109.422 188.086 110.022C187.546 110.622 186.706 110.958 185.77 110.958C184.798 110.958 183.91 110.598 183.346 109.962C182.83 109.386 182.626 108.666 182.626 107.43V102.798H184.27ZM190.373 105.246H191.897V105.93C192.305 105.294 192.713 105.054 193.409 105.054C193.937 105.054 194.441 105.246 194.777 105.57C195.137 105.93 195.269 106.374 195.269 107.286V110.802H193.745V107.358C193.745 107.046 193.709 106.866 193.613 106.71C193.469 106.482 193.181 106.338 192.881 106.338C192.293 106.338 191.897 106.782 191.897 107.43V110.802H190.373V105.246ZM198.272 105.246V110.802H196.748V105.246H198.272ZM197.516 102.81C198.008 102.81 198.356 103.17 198.356 103.674C198.356 104.142 197.996 104.502 197.516 104.502C197.024 104.502 196.664 104.142 196.664 103.662C196.664 103.17 197.024 102.81 197.516 102.81ZM203.047 105.246H204.607L202.579 110.802H201.007L199.003 105.246H200.587L201.811 108.558L203.047 105.246ZM210.801 108.39H206.457C206.589 109.158 207.153 109.638 207.909 109.638C208.473 109.638 208.953 109.362 209.193 108.918L210.597 109.302C210.045 110.382 209.073 110.994 207.897 110.994C206.133 110.994 204.873 109.746 204.873 108.018C204.873 106.278 206.085 105.054 207.801 105.054C209.577 105.054 210.813 106.302 210.813 108.09L210.801 108.39ZM206.457 107.514H209.241C209.109 106.782 208.581 106.338 207.825 106.338C207.093 106.338 206.601 106.758 206.457 107.514ZM211.901 105.246H213.425V106.062C213.581 105.654 213.689 105.486 213.917 105.318C214.157 105.15 214.481 105.054 214.817 105.054C214.853 105.054 214.913 105.054 214.997 105.066V106.626C214.877 106.614 214.757 106.602 214.673 106.602C214.253 106.602 213.869 106.794 213.653 107.106C213.473 107.358 213.425 107.598 213.425 108.126V110.802H211.901V105.246ZM219.842 106.854H218.402V106.758C218.402 106.422 218.102 106.182 217.694 106.182C217.322 106.182 217.082 106.386 217.082 106.686C217.082 106.83 217.142 106.974 217.238 107.046C217.406 107.178 217.418 107.178 218.186 107.418C219.434 107.802 219.926 108.294 219.926 109.194C219.926 110.274 219.062 110.994 217.766 110.994C216.446 110.994 215.642 110.322 215.582 109.17H217.046C217.118 109.65 217.334 109.866 217.778 109.866C218.138 109.866 218.39 109.65 218.39 109.338C218.39 109.002 218.174 108.846 217.358 108.594C216.158 108.234 215.618 107.694 215.618 106.818C215.618 105.762 216.47 105.054 217.766 105.054C219.038 105.054 219.806 105.726 219.842 106.854ZM222.577 105.246V110.802H221.053V105.246H222.577ZM221.821 102.81C222.313 102.81 222.661 103.17 222.661 103.674C222.661 104.142 222.301 104.502 221.821 104.502C221.329 104.502 220.969 104.142 220.969 103.662C220.969 103.17 221.329 102.81 221.821 102.81ZM225.684 106.506V109.17C225.684 109.434 225.78 109.506 226.116 109.53H226.38V110.802H225.168C224.424 110.778 224.148 110.478 224.16 109.746V106.506H223.524V105.222H224.16V103.734H225.684V105.222H226.38V106.506H225.684ZM229.63 108.546L230.926 105.246H232.546L229.414 113.334H227.782L228.826 110.67L226.882 105.246H228.502L229.63 108.546ZM234.488 109.518L233.42 112.386L232.388 112.146L233.084 109.17L234.488 109.518ZM38.9371 118.798V126.802H37.2931V118.798H38.9371ZM47.0404 123.934L48.3724 118.798H50.0884L47.8564 126.802H46.2004L44.9404 121.558L43.6804 126.802H42.0244L39.8404 118.798H41.5804L42.8644 123.85L44.1604 118.798H45.7924L47.0404 123.934ZM52.6363 123.238V126.802H50.9923V118.798H52.6363V122.278L54.9043 118.798H56.8123L54.2203 122.65L56.8123 126.802H54.8803L52.6363 123.238ZM62.9957 123.526V126.802H61.3517V118.798H62.9957V122.182H66.0317V118.798H67.6757V126.802H66.0317V123.526H62.9957ZM74.8396 124.39H70.4956C70.6276 125.158 71.1916 125.638 71.9476 125.638C72.5116 125.638 72.9916 125.362 73.2316 124.918L74.6356 125.302C74.0836 126.382 73.1116 126.994 71.9356 126.994C70.1716 126.994 68.9116 125.746 68.9116 124.018C68.9116 122.278 70.1236 121.054 71.8396 121.054C73.6156 121.054 74.8516 122.302 74.8516 124.09L74.8396 124.39ZM70.4956 123.514H73.2796C73.1476 122.782 72.6196 122.338 71.8636 122.338C71.1316 122.338 70.6396 122.758 70.4956 123.514ZM80.1996 121.954V121.246H81.7236V126.802H80.1996V126.034C79.6836 126.694 79.0836 126.994 78.2676 126.994C76.7076 126.994 75.5916 125.782 75.5916 124.09C75.5916 122.338 76.7676 121.054 78.3876 121.054C79.1436 121.054 79.6596 121.318 80.1996 121.954ZM78.6996 122.338C77.8356 122.338 77.2236 123.046 77.2236 124.066C77.2236 125.038 77.8596 125.77 78.6876 125.77C79.5396 125.77 80.2236 124.978 80.2236 124.018C80.2236 123.034 79.5996 122.338 78.6996 122.338ZM84.7527 126.802H83.2287V118.798H84.7527V126.802ZM87.8598 122.506V125.17C87.8598 125.434 87.9558 125.506 88.2918 125.53H88.5558V126.802H87.3438C86.5998 126.778 86.3238 126.478 86.3358 125.746V122.506H85.6998V121.222H86.3358V119.734H87.8598V121.222H88.5558V122.506H87.8598ZM91.2448 118.798V121.846C91.7128 121.294 92.1688 121.054 92.7688 121.054C93.2488 121.054 93.7768 121.258 94.1008 121.57C94.4608 121.906 94.5928 122.338 94.5928 123.142V126.802H93.0688V123.358C93.0688 122.734 92.7448 122.338 92.2408 122.338C91.9768 122.338 91.7368 122.434 91.5568 122.614C91.3168 122.842 91.2448 123.058 91.2448 123.49V126.802H89.7208V118.798H91.2448ZM103.93 121.954V121.246H105.454V126.802H103.93V126.034C103.414 126.694 102.814 126.994 101.998 126.994C100.438 126.994 99.3221 125.782 99.3221 124.09C99.3221 122.338 100.498 121.054 102.118 121.054C102.874 121.054 103.39 121.318 103.93 121.954ZM102.43 122.338C101.566 122.338 100.954 123.046 100.954 124.066C100.954 125.038 101.59 125.77 102.418 125.77C103.27 125.77 103.954 124.978 103.954 124.018C103.954 123.034 103.33 122.338 102.43 122.338ZM106.959 121.246H108.483V121.93C108.891 121.294 109.299 121.054 109.995 121.054C110.523 121.054 111.027 121.246 111.363 121.57C111.723 121.93 111.855 122.374 111.855 123.286V126.802H110.331V123.358C110.331 123.046 110.295 122.866 110.199 122.71C110.055 122.482 109.767 122.338 109.467 122.338C108.879 122.338 108.483 122.782 108.483 123.43V126.802H106.959V121.246ZM117.594 121.858V118.798H119.118V126.802H117.594V126.07C117.114 126.73 116.586 126.994 115.734 126.994C114.09 126.994 112.986 125.818 112.986 124.078C112.986 123.142 113.298 122.362 113.874 121.822C114.402 121.33 115.074 121.054 115.758 121.054C116.514 121.054 117.054 121.294 117.594 121.858ZM116.118 122.338C115.242 122.338 114.606 123.07 114.606 124.09C114.606 125.05 115.242 125.77 116.106 125.77C116.946 125.77 117.594 125.038 117.594 124.078C117.594 123.07 116.97 122.338 116.118 122.338ZM125.949 121.738V126.802H124.305V118.798H125.925L129.273 123.79V118.798H130.917V126.802H129.309L125.949 121.738ZM135.229 121.054C136.981 121.054 138.241 122.326 138.241 124.078C138.241 125.71 136.909 126.994 135.205 126.994C133.453 126.994 132.193 125.758 132.193 124.03C132.193 122.266 133.429 121.054 135.229 121.054ZM135.229 122.422C134.329 122.422 133.729 123.058 133.729 124.03C133.729 124.99 134.329 125.638 135.217 125.638C136.093 125.638 136.705 124.978 136.705 124.054C136.705 123.046 136.141 122.422 135.229 122.422ZM142.508 121.246H144.068L142.04 126.802H140.468L138.464 121.246H140.048L141.272 124.558L142.508 121.246ZM148.954 121.954V121.246H150.478V126.802H148.954V126.034C148.438 126.694 147.838 126.994 147.021 126.994C145.462 126.994 144.346 125.782 144.346 124.09C144.346 122.338 145.521 121.054 147.142 121.054C147.898 121.054 148.414 121.318 148.954 121.954ZM147.454 122.338C146.59 122.338 145.978 123.046 145.978 124.066C145.978 125.038 146.614 125.77 147.442 125.77C148.294 125.77 148.978 124.978 148.978 124.018C148.978 123.034 148.354 122.338 147.454 122.338ZM155.196 124.462H156.792V124.57C156.792 125.11 157.26 125.506 157.884 125.506C158.484 125.506 158.94 125.134 158.94 124.654C158.94 124.402 158.82 124.174 158.616 124.018C158.412 123.862 158.268 123.802 157.644 123.574C155.892 122.95 155.268 122.29 155.268 121.066C155.268 119.614 156.336 118.642 157.908 118.642C159.468 118.642 160.476 119.554 160.608 121.09H158.952C158.892 120.418 158.556 120.094 157.908 120.094C157.32 120.094 156.924 120.43 156.924 120.934C156.924 121.258 157.092 121.51 157.416 121.69C157.632 121.81 157.764 121.87 158.352 122.086C159.228 122.41 159.672 122.638 160.02 122.974C160.44 123.37 160.656 123.91 160.656 124.522C160.656 125.986 159.552 126.958 157.896 126.958C156.216 126.958 155.184 125.998 155.196 124.462ZM165.677 125.17L166.601 126.166C165.965 126.742 165.305 126.994 164.465 126.994C162.773 126.994 161.525 125.746 161.525 124.054C161.525 122.302 162.749 121.054 164.477 121.054C165.305 121.054 165.989 121.342 166.697 121.978L165.677 122.902C165.341 122.566 164.981 122.41 164.537 122.41C163.697 122.41 163.073 123.094 163.073 124.006C163.073 124.954 163.709 125.638 164.597 125.638C164.993 125.638 165.281 125.518 165.677 125.17ZM170.01 121.054C171.762 121.054 173.022 122.326 173.022 124.078C173.022 125.71 171.69 126.994 169.986 126.994C168.234 126.994 166.974 125.758 166.974 124.03C166.974 122.266 168.21 121.054 170.01 121.054ZM170.01 122.422C169.11 122.422 168.51 123.058 168.51 124.03C168.51 124.99 169.11 125.638 169.998 125.638C170.874 125.638 171.486 124.978 171.486 124.054C171.486 123.046 170.922 122.422 170.01 122.422ZM175.739 122.506V125.17C175.739 125.434 175.835 125.506 176.171 125.53H176.435V126.802H175.223C174.479 126.778 174.203 126.478 174.215 125.746V122.506H173.579V121.222H174.215V119.734H175.739V121.222H176.435V122.506H175.739ZM179.1 121.246V126.802H177.576V121.246H179.1ZM178.344 118.81C178.836 118.81 179.184 119.17 179.184 119.674C179.184 120.142 178.824 120.502 178.344 120.502C177.852 120.502 177.492 120.142 177.492 119.662C177.492 119.17 177.852 118.81 178.344 118.81ZM184.871 121.954V121.246H186.395V126.802H184.871V126.034C184.355 126.694 183.755 126.994 182.939 126.994C181.379 126.994 180.263 125.782 180.263 124.09C180.263 122.338 181.439 121.054 183.059 121.054C183.815 121.054 184.331 121.318 184.871 121.954ZM183.371 122.338C182.507 122.338 181.895 123.046 181.895 124.066C181.895 125.038 182.531 125.77 183.359 125.77C184.211 125.77 184.895 124.978 184.895 124.018C184.895 123.034 184.271 122.338 183.371 122.338ZM193.226 123.526V126.802H191.582V118.798H193.226V122.182H196.262V118.798H197.906V126.802H196.262V123.526H193.226ZM205.07 124.39H200.726C200.858 125.158 201.422 125.638 202.178 125.638C202.742 125.638 203.222 125.362 203.462 124.918L204.866 125.302C204.314 126.382 203.342 126.994 202.166 126.994C200.402 126.994 199.142 125.746 199.142 124.018C199.142 122.278 200.354 121.054 202.07 121.054C203.846 121.054 205.082 122.302 205.082 124.09L205.07 124.39ZM200.726 123.514H203.51C203.378 122.782 202.85 122.338 202.094 122.338C201.362 122.338 200.87 122.758 200.726 123.514ZM210.43 121.954V121.246H211.954V126.802H210.43V126.034C209.914 126.694 209.314 126.994 208.498 126.994C206.938 126.994 205.822 125.782 205.822 124.09C205.822 122.338 206.998 121.054 208.618 121.054C209.374 121.054 209.89 121.318 210.43 121.954ZM208.93 122.338C208.066 122.338 207.454 123.046 207.454 124.066C207.454 125.038 208.09 125.77 208.918 125.77C209.77 125.77 210.454 124.978 210.454 124.018C210.454 123.034 209.83 122.338 208.93 122.338ZM214.983 126.802H213.459V118.798H214.983V126.802ZM218.09 122.506V125.17C218.09 125.434 218.186 125.506 218.522 125.53H218.786V126.802H217.574C216.83 126.778 216.554 126.478 216.566 125.746V122.506H215.93V121.222H216.566V119.734H218.09V121.222H218.786V122.506H218.09ZM221.475 118.798V121.846C221.943 121.294 222.399 121.054 222.999 121.054C223.479 121.054 224.007 121.258 224.331 121.57C224.691 121.906 224.823 122.338 224.823 123.142V126.802H223.299V123.358C223.299 122.734 222.975 122.338 222.471 122.338C222.207 122.338 221.967 122.434 221.787 122.614C221.547 122.842 221.475 123.058 221.475 123.49V126.802H219.951V118.798H221.475Z" fill="white"/>
</g>
<defs>
<clipPath id="clip0_82_1635">
<rect width="262" height="142.085" fill="white" transform="translate(0 0.716797)"/>
</clipPath>
</defs>
</svg>
