<?xml version="1.0" encoding="UTF-8"?>
<svg id="Logos" xmlns="http://www.w3.org/2000/svg" viewBox="0 0 853.32 1280">
  <defs>
    <style>
      .cls-1 {
        fill: #064f96;
      }

      .cls-2 {
        fill: #f3ab44;
      }

      .cls-3 {
        fill: #88aacd;
      }

      .cls-4 {
        fill: #dd8327;
      }
    </style>
  </defs>
  <path class="cls-1" d="m0,0v1280h853.32V0H0Zm839.32,1266H14V14h825.32v1252Z"/>
  <g id="Icon">
    <g>
      <g>
        <polygon class="cls-4" points="332.27 420.87 426.66 515.26 426.66 326.48 332.27 420.87"/>
        <polygon class="cls-2" points="426.66 326.48 426.66 515.26 521.05 420.87 426.66 326.48"/>
        <polygon class="cls-4" points="126.32 266.41 126.32 369.07 295.97 539.29 295.97 436.31 126.32 266.41"/>
        <polygon class="cls-2" points="557.35 436.31 557.35 539.29 726.99 369.38 726.99 266.41 557.35 436.31"/>
        <polygon class="cls-1" points="332.27 712.62 426.66 807.01 426.66 566.74 332.27 472.35 332.27 712.62"/>
      </g>
      <rect class="cls-3" x="462.43" y="191.02" width="254.66" height="133.49" transform="translate(-9.53 492.52) rotate(-45)"/>
      <rect class="cls-1" x="196.87" y="130.41" width="133.49" height="254.83" transform="translate(-105.1 261.92) rotate(-45)"/>
    </g>
    <polygon class="cls-3" points="426.81 566.74 426.81 807.01 521.16 712.66 521.16 472.39 426.81 566.74"/>
  </g>
  <g>
    <g>
      <path class="cls-1" d="m159.94,922.71c19.91,0,37.28,11.97,46.46,29.72l35.99-35.7c-19.25-24.72-49.29-40.62-83.05-40.62-58.11,0-105.22,47.11-105.22,105.22s47.11,105.22,105.22,105.22c33.43,0,63.22-15.6,82.49-39.91l-35.51-36.25c-9.2,17.66-26.52,29.56-46.38,29.56-29.49,0-53.39-26.25-53.39-58.62s23.91-58.62,53.39-58.62Z"/>
      <path class="cls-1" d="m358.85,922.71c19.91,0,37.28,11.97,46.46,29.72l35.99-35.7c-19.25-24.72-49.29-40.62-83.05-40.62-58.11,0-105.22,47.11-105.22,105.22s47.11,105.22,105.22,105.22c33.43,0,63.22-15.6,82.49-39.91l-35.51-36.25c-9.2,17.66-26.52,29.56-46.38,29.56-29.49,0-53.39-26.25-53.39-58.62s23.91-58.62,53.39-58.62Z"/>
      <polygon class="cls-1" points="738.23 878.6 688.16 1025.45 654.88 927.85 596.8 927.85 649.85 1082.94 726.48 1082.94 798.62 878.6 738.23 878.6"/>
      <g>
        <polygon class="cls-3" points="463.41 878.6 463.41 1082.94 516.11 1082.94 516.11 1006.29 589.08 1006.29 589.08 957.03 516.11 957.03 516.11 927.85 597.8 927.85 580.78 878.6 463.41 878.6"/>
        <polygon class="cls-2" points="638.09 878.6 588.59 878.6 580.17 878.6 596.8 927.85 607.15 927.85 654.88 927.85 638.09 878.6"/>
      </g>
    </g>
    <g>
      <path class="cls-1" d="m87.36,1139.55c-3.77,3.52-7.29,4.94-12.13,4.94s-8.81-1.66-11.69-4.89c-2.79-3.08-4.4-7.49-4.4-11.99,0-9.93,6.75-17.03,16.2-17.03,5.04,0,8.46,1.42,12.33,5.19l-4.35,4.4c-2.64-2.4-4.89-3.38-7.63-3.38-5.72,0-9.74,4.4-9.74,10.67s4.21,10.81,10.08,10.81c2.98,0,5.28-1.03,7.29-3.33l4.06,4.6Z"/>
      <path class="cls-1" d="m108.64,1121.21h6.21v22.65h-6.21v-3.13c-2.1,2.69-4.55,3.91-7.88,3.91-6.36,0-10.91-4.94-10.91-11.84s4.8-12.38,11.4-12.38c3.08,0,5.19,1.08,7.39,3.67v-2.89Zm-12.13,11.5c0,3.96,2.59,6.95,5.97,6.95s6.26-3.23,6.26-7.14-2.54-6.85-6.21-6.85-6.02,2.89-6.02,7.05Z"/>
      <path class="cls-1" d="m127.48,1121.21v2.79c1.66-2.59,3.33-3.57,6.16-3.57,2.15,0,4.21.78,5.58,2.1,1.47,1.47,2.01,3.28,2.01,7v14.34h-6.21v-14.04c0-1.27-.15-2.01-.54-2.64-.59-.93-1.76-1.52-2.98-1.52-2.4,0-4.01,1.81-4.01,4.45v13.75h-6.21v-22.65h6.21Z"/>
      <path class="cls-1" d="m164.91,1121.21h6.21v22.65h-6.21v-3.13c-2.1,2.69-4.55,3.91-7.88,3.91-6.36,0-10.91-4.94-10.91-11.84s4.8-12.38,11.4-12.38c3.08,0,5.19,1.08,7.39,3.67v-2.89Zm-12.13,11.5c0,3.96,2.59,6.95,5.97,6.95s6.26-3.23,6.26-7.14-2.54-6.85-6.21-6.85-6.02,2.89-6.02,7.05Z"/>
      <path class="cls-1" d="m194.91,1111.22h6.21v32.64h-6.21v-2.98c-1.96,2.69-4.11,3.77-7.58,3.77-6.7,0-11.2-4.8-11.2-11.89,0-3.82,1.27-7,3.62-9.2,2.15-2.01,4.89-3.13,7.68-3.13,3.08,0,5.28.98,7.49,3.28v-12.48Zm-12.18,21.58c0,3.91,2.59,6.85,6.12,6.85s6.07-2.98,6.07-6.9c0-4.11-2.54-7.09-6.02-7.09s-6.17,2.98-6.17,7.14Z"/>
      <path class="cls-1" d="m214.09,1114.8c0,1.91-1.47,3.38-3.43,3.38s-3.47-1.47-3.47-3.42,1.47-3.47,3.47-3.47,3.43,1.47,3.43,3.52Zm-.34,29.06h-6.21v-22.65h6.21v22.65Z"/>
      <path class="cls-1" d="m237.57,1121.21h6.21v22.65h-6.21v-3.13c-2.1,2.69-4.55,3.91-7.88,3.91-6.36,0-10.91-4.94-10.91-11.84s4.8-12.38,11.4-12.38c3.08,0,5.19,1.08,7.39,3.67v-2.89Zm-12.13,11.5c0,3.96,2.59,6.95,5.97,6.95s6.26-3.23,6.26-7.14-2.54-6.85-6.21-6.85-6.02,2.89-6.02,7.05Z"/>
      <path class="cls-1" d="m256.41,1121.21v2.79c1.66-2.59,3.33-3.57,6.16-3.57,2.15,0,4.21.78,5.58,2.1,1.47,1.47,2.01,3.28,2.01,7v14.34h-6.21v-14.04c0-1.27-.15-2.01-.54-2.64-.59-.93-1.76-1.52-2.98-1.52-2.4,0-4.01,1.81-4.01,4.45v13.75h-6.21v-22.65h6.21Z"/>
      <path class="cls-1" d="m318.4,1139.55c-3.77,3.52-7.29,4.94-12.13,4.94s-8.81-1.66-11.69-4.89c-2.79-3.08-4.4-7.49-4.4-11.99,0-9.93,6.75-17.03,16.2-17.03,5.04,0,8.46,1.42,12.33,5.19l-4.36,4.4c-2.64-2.4-4.89-3.38-7.63-3.38-5.72,0-9.74,4.4-9.74,10.67s4.21,10.81,10.08,10.81c2.98,0,5.28-1.03,7.29-3.33l4.06,4.6Z"/>
      <path class="cls-1" d="m327.16,1134.03c.54,3.13,2.84,5.09,5.92,5.09,2.3,0,4.26-1.13,5.24-2.94l5.72,1.57c-2.25,4.4-6.21,6.9-11.01,6.9-7.19,0-12.33-5.09-12.33-12.14s4.94-12.09,11.94-12.09,12.28,5.09,12.28,12.38l-.05,1.22h-17.71Zm11.35-3.57c-.54-2.99-2.69-4.8-5.77-4.8s-4.99,1.71-5.58,4.8h11.35Z"/>
      <path class="cls-1" d="m355.88,1121.21v2.79c1.66-2.59,3.33-3.57,6.16-3.57,2.15,0,4.21.78,5.58,2.1,1.47,1.47,2.01,3.28,2.01,7v14.34h-6.21v-14.04c0-1.27-.15-2.01-.54-2.64-.59-.93-1.76-1.52-2.99-1.52-2.4,0-4.01,1.81-4.01,4.45v13.75h-6.21v-22.65h6.21Z"/>
      <path class="cls-1" d="m382.45,1137.21c0,1.08.39,1.37,1.76,1.47h1.08v5.19h-4.94c-3.03-.1-4.16-1.32-4.11-4.31v-13.21h-2.59v-5.23h2.59v-6.07h6.21v6.07h2.84v5.23h-2.84v10.86Z"/>
      <path class="cls-1" d="m394.88,1134.03c.54,3.13,2.84,5.09,5.92,5.09,2.3,0,4.26-1.13,5.24-2.94l5.72,1.57c-2.25,4.4-6.21,6.9-11.01,6.9-7.19,0-12.33-5.09-12.33-12.14s4.94-12.09,11.94-12.09,12.28,5.09,12.28,12.38l-.05,1.22h-17.71Zm11.35-3.57c-.54-2.99-2.69-4.8-5.77-4.8s-4.99,1.71-5.58,4.8h11.35Z"/>
      <path class="cls-1" d="m423.6,1121.21v3.33c.64-1.66,1.08-2.35,2.01-3.03.98-.68,2.3-1.08,3.67-1.08.15,0,.39,0,.73.05v6.36c-.49-.05-.98-.1-1.32-.1-1.71,0-3.28.78-4.16,2.06-.73,1.03-.93,2.01-.93,4.16v10.91h-6.21v-22.65h6.21Z"/>
      <path class="cls-1" d="m455.6,1143.86h-6.21v-17.42h-2.5v-5.24h2.5v-1.27c0-6.07,2.98-8.9,9.2-8.71v5.72c-2.15.24-2.98,1.08-2.98,2.98v1.27h2.98v5.24h-2.98v17.42Z"/>
      <path class="cls-1" d="m486.08,1132.75c0,6.65-5.43,11.89-12.38,11.89s-12.28-5.04-12.28-12.09,5.04-12.13,12.38-12.13,12.28,5.19,12.28,12.33Zm-18.4-.2c0,3.91,2.45,6.56,6.07,6.56s6.07-2.69,6.07-6.46c0-4.11-2.3-6.65-6.02-6.65s-6.12,2.59-6.12,6.56Z"/>
      <path class="cls-1" d="m497.19,1121.21v3.33c.64-1.66,1.08-2.35,2.01-3.03.98-.68,2.3-1.08,3.67-1.08.15,0,.39,0,.73.05v6.36c-.49-.05-.98-.1-1.32-.1-1.71,0-3.28.78-4.16,2.06-.73,1.03-.93,2.01-.93,4.16v10.91h-6.21v-22.65h6.21Z"/>
      <path class="cls-1" d="m539.96,1111.22h6.9l-10.28,32.64h-7.14l-9.88-32.64h6.9l6.6,21.87,6.9-21.87Z"/>
      <path class="cls-1" d="m566.18,1121.21h6.21v22.65h-6.21v-3.13c-2.1,2.69-4.55,3.91-7.88,3.91-6.36,0-10.91-4.94-10.91-11.84s4.8-12.38,11.4-12.38c3.08,0,5.19,1.08,7.39,3.67v-2.89Zm-12.13,11.5c0,3.96,2.59,6.95,5.97,6.95s6.26-3.23,6.26-7.14-2.55-6.85-6.21-6.85-6.02,2.89-6.02,7.05Z"/>
      <path class="cls-1" d="m598.04,1141.27c-2.59,2.35-5.28,3.38-8.71,3.38-6.9,0-11.99-5.09-11.99-11.99s4.99-12.23,12.04-12.23c3.38,0,6.16,1.17,9.05,3.77l-4.16,3.77c-1.37-1.37-2.84-2.01-4.65-2.01-3.43,0-5.97,2.79-5.97,6.51s2.59,6.65,6.21,6.65c1.61,0,2.79-.49,4.4-1.91l3.77,4.06Z"/>
      <path class="cls-1" d="m620.54,1141.27c-2.59,2.35-5.28,3.38-8.71,3.38-6.9,0-11.99-5.09-11.99-11.99s4.99-12.23,12.04-12.23c3.38,0,6.16,1.17,9.05,3.77l-4.16,3.77c-1.37-1.37-2.84-2.01-4.65-2.01-3.43,0-5.97,2.79-5.97,6.51s2.59,6.65,6.21,6.65c1.61,0,2.79-.49,4.4-1.91l3.77,4.06Z"/>
      <path class="cls-1" d="m631.06,1114.8c0,1.91-1.47,3.38-3.43,3.38s-3.47-1.47-3.47-3.42,1.47-3.47,3.47-3.47,3.43,1.47,3.43,3.52Zm-.34,29.06h-6.21v-22.65h6.21v22.65Z"/>
      <path class="cls-1" d="m643.39,1121.21v2.79c1.66-2.59,3.33-3.57,6.16-3.57,2.15,0,4.21.78,5.58,2.1,1.47,1.47,2.01,3.28,2.01,7v14.34h-6.21v-14.04c0-1.27-.15-2.01-.54-2.64-.59-.93-1.76-1.52-2.98-1.52-2.4,0-4.01,1.81-4.01,4.45v13.75h-6.21v-22.65h6.21Z"/>
      <path class="cls-1" d="m686.65,1132.75c0,6.65-5.43,11.89-12.38,11.89s-12.28-5.04-12.28-12.09,5.04-12.13,12.38-12.13,12.28,5.19,12.28,12.33Zm-18.4-.2c0,3.91,2.45,6.56,6.07,6.56s6.07-2.69,6.07-6.46c0-4.11-2.3-6.65-6.02-6.65s-6.12,2.59-6.12,6.56Z"/>
      <path class="cls-1" d="m691.54,1143.86v-32.64h6.21v32.64h-6.21Z"/>
      <path class="cls-1" d="m727.4,1132.75c0,6.65-5.43,11.89-12.38,11.89s-12.28-5.04-12.28-12.09,5.04-12.13,12.38-12.13,12.28,5.19,12.28,12.33Zm-18.4-.2c0,3.91,2.45,6.56,6.07,6.56s6.07-2.69,6.07-6.46c0-4.11-2.3-6.65-6.02-6.65s-6.12,2.59-6.12,6.56Z"/>
      <path class="cls-1" d="m749.18,1121.21h6.12v20.99c0,4.65-.88,7.34-3.03,9.44-2.2,2.2-5.53,3.43-9.39,3.43-4.4,0-8.02-1.47-11.11-4.5l3.86-3.91c2.01,2.15,4.16,3.13,7,3.13,4.16,0,6.56-2.45,6.56-6.7v-2.3c-2.05,2.59-4.7,3.87-7.97,3.87-6.21,0-10.72-5.04-10.72-11.94,0-7.34,4.55-12.28,11.35-12.28,3.18,0,5.38,1.08,7.34,3.57v-2.79Zm-12.09,11.2c0,3.91,2.55,6.7,6.12,6.7,1.81,0,3.57-.78,4.7-2.1.73-.88,1.18-2.3,1.18-4.01,0-2.45-.54-4.11-1.66-5.28-1.13-1.08-2.69-1.76-4.26-1.76-3.57,0-6.07,2.69-6.07,6.46Z"/>
      <path class="cls-1" d="m775.06,1121.21h6.6l-12.77,32.98h-6.65l4.26-10.86-7.93-22.12h6.61l4.6,13.46,5.28-13.46Z"/>
    </g>
  </g>
</svg>