<svg xmlns="http://www.w3.org/2000/svg" viewBox="0 0 1120 1280"><defs><style>.cls-1{fill:#dd8327;}.cls-2{fill:#f3ab44;}.cls-3{fill:#064f96;}.cls-4{fill:#88aacd;}</style></defs><g id="Layer_2" data-name="Layer 2"><g id="Logomark"><g id="Icon"><polygon class="cls-1" points="384 560 560 736 560 384 384 560"/><polygon class="cls-2" points="560 384 560 736 736 560 560 384"/><polygon class="cls-1" points="0 272 0 463.42 316.32 780.8 316.32 588.8 0 272"/><polygon class="cls-2" points="803.68 588.8 803.68 780.8 1120 464 1120 272 803.68 588.8"/><polygon class="cls-3" points="384 1104 560 1280 560 832 384 656 384 1104"/><rect class="cls-4" x="626.7" y="131.43" width="474.83" height="248.9" transform="translate(72.16 685.97) rotate(-45)"/><rect class="cls-3" x="131.54" y="18.42" width="248.9" height="475.14" transform="translate(-106.03 255.99) rotate(-45)"/><polygon class="cls-4" points="560.29 832 560.29 1280 736.22 1104.07 736.22 656.07 560.29 832"/></g></g></g></svg>