<?xml version="1.0" encoding="UTF-8"?>
<svg id="Logos" xmlns="http://www.w3.org/2000/svg" viewBox="0 0 1252 468.86">
  <defs>
    <style>
      .cls-1 {
        fill: #064f96;
      }

      .cls-2 {
        fill: #f3ab44;
      }

      .cls-3 {
        fill: #88aacd;
      }

      .cls-4 {
        fill: #dd8327;
      }
    </style>
  </defs>
  <g>
    <g id="Icon">
      <g>
        <g>
          <polygon class="cls-4" points="158.69 212.26 197.41 250.98 197.41 173.54 158.69 212.26"/>
          <polygon class="cls-2" points="197.41 173.54 197.41 250.98 236.13 212.26 197.41 173.54"/>
          <polygon class="cls-4" points="74.21 148.9 74.21 191.01 143.8 260.83 143.8 218.59 74.21 148.9"/>
          <polygon class="cls-2" points="251.02 218.59 251.02 260.83 320.61 191.14 320.61 148.9 251.02 218.59"/>
          <polygon class="cls-1" points="158.69 331.94 197.41 370.66 197.41 272.1 158.69 233.38 158.69 331.94"/>
        </g>
        <rect class="cls-3" x="212.08" y="117.97" width="104.46" height="54.76" transform="translate(-25.36 229.47) rotate(-45)"/>
        <rect class="cls-1" x="103.15" y="93.11" width="54.76" height="104.53" transform="translate(-64.57 134.88) rotate(-45)"/>
      </g>
      <polygon class="cls-3" points="197.47 272.1 197.47 370.66 236.18 331.95 236.18 233.39 197.47 272.1"/>
    </g>
    <g>
      <g>
        <path class="cls-1" d="m502.79,138.3c21.05,0,39.4,12.65,49.1,31.41l38.04-37.72c-20.35-26.12-52.1-42.93-87.77-42.93-61.41,0-111.2,49.79-111.2,111.2s49.79,111.2,111.2,111.2c35.33,0,66.82-16.48,87.19-42.18l-37.53-38.31c-9.72,18.66-28.03,31.24-49.02,31.24-31.17,0-56.43-27.74-56.43-61.95s25.26-61.95,56.43-61.95Z"/>
        <path class="cls-1" d="m713.01,138.3c21.05,0,39.4,12.65,49.1,31.41l38.04-37.72c-20.35-26.12-52.1-42.93-87.77-42.93-61.41,0-111.2,49.79-111.2,111.2s49.79,111.2,111.2,111.2c35.33,0,66.82-16.48,87.19-42.18l-37.53-38.31c-9.72,18.66-28.03,31.24-49.02,31.24-31.17,0-56.43-27.74-56.43-61.95s25.26-61.95,56.43-61.95Z"/>
        <polygon class="cls-1" points="1113.97 91.68 1061.05 246.88 1025.88 143.73 964.49 143.73 1020.56 307.64 1101.55 307.64 1177.79 91.68 1113.97 91.68"/>
        <g>
          <polygon class="cls-3" points="823.52 91.68 823.52 307.64 879.21 307.64 879.21 226.63 956.34 226.63 956.34 174.57 879.21 174.57 879.21 143.73 965.55 143.73 947.56 91.68 823.52 91.68"/>
          <polygon class="cls-2" points="1008.13 91.68 955.82 91.68 946.92 91.68 964.49 143.73 975.44 143.73 1025.88 143.73 1008.13 91.68"/>
        </g>
      </g>
      <g>
        <path class="cls-1" d="m426.08,367.47c-3.98,3.72-7.71,5.22-12.82,5.22s-9.31-1.76-12.36-5.17c-2.95-3.26-4.65-7.91-4.65-12.67,0-10.5,7.14-18,17.12-18,5.33,0,8.95,1.5,13.03,5.48l-4.6,4.65c-2.79-2.53-5.17-3.57-8.07-3.57-6.05,0-10.29,4.65-10.29,11.27s4.45,11.43,10.65,11.43c3.15,0,5.58-1.09,7.71-3.52l4.29,4.86Z"/>
        <path class="cls-1" d="m448.58,348.08h6.57v23.94h-6.57v-3.31c-2.22,2.84-4.81,4.14-8.33,4.14-6.72,0-11.53-5.22-11.53-12.51s5.07-13.08,12.05-13.08c3.26,0,5.48,1.14,7.81,3.88v-3.05Zm-12.82,12.15c0,4.19,2.74,7.34,6.31,7.34s6.62-3.41,6.62-7.55-2.69-7.24-6.57-7.24-6.36,3.05-6.36,7.45Z"/>
        <path class="cls-1" d="m468.49,348.08v2.95c1.76-2.74,3.52-3.78,6.52-3.78,2.28,0,4.45.83,5.9,2.22,1.55,1.55,2.12,3.46,2.12,7.39v15.15h-6.57v-14.84c0-1.34-.15-2.12-.57-2.79-.62-.98-1.86-1.6-3.15-1.6-2.53,0-4.24,1.91-4.24,4.71v14.53h-6.57v-23.94h6.57Z"/>
        <path class="cls-1" d="m508.05,348.08h6.57v23.94h-6.57v-3.31c-2.22,2.84-4.81,4.14-8.33,4.14-6.72,0-11.53-5.22-11.53-12.51s5.07-13.08,12.05-13.08c3.26,0,5.48,1.14,7.81,3.88v-3.05Zm-12.82,12.15c0,4.19,2.74,7.34,6.31,7.34s6.62-3.41,6.62-7.55-2.69-7.24-6.57-7.24-6.36,3.05-6.36,7.45Z"/>
        <path class="cls-1" d="m539.75,337.53h6.57v34.49h-6.57v-3.15c-2.07,2.84-4.34,3.98-8.02,3.98-7.08,0-11.84-5.07-11.84-12.57,0-4.03,1.34-7.39,3.83-9.72,2.28-2.12,5.17-3.31,8.12-3.31,3.26,0,5.59,1.03,7.91,3.46v-13.19Zm-12.88,22.8c0,4.14,2.74,7.24,6.46,7.24s6.41-3.15,6.41-7.29c0-4.34-2.69-7.5-6.36-7.5s-6.52,3.15-6.52,7.55Z"/>
        <path class="cls-1" d="m560.02,341.31c0,2.02-1.55,3.57-3.62,3.57s-3.67-1.55-3.67-3.62,1.55-3.67,3.67-3.67,3.62,1.55,3.62,3.72Zm-.36,30.72h-6.57v-23.94h6.57v23.94Z"/>
        <path class="cls-1" d="m584.84,348.08h6.57v23.94h-6.57v-3.31c-2.22,2.84-4.81,4.14-8.33,4.14-6.72,0-11.53-5.22-11.53-12.51s5.07-13.08,12.05-13.08c3.26,0,5.48,1.14,7.81,3.88v-3.05Zm-12.82,12.15c0,4.19,2.74,7.34,6.31,7.34s6.62-3.41,6.62-7.55-2.69-7.24-6.57-7.24-6.36,3.05-6.36,7.45Z"/>
        <path class="cls-1" d="m604.75,348.08v2.95c1.76-2.74,3.52-3.78,6.52-3.78,2.28,0,4.45.83,5.9,2.22,1.55,1.55,2.12,3.46,2.12,7.39v15.15h-6.57v-14.84c0-1.34-.16-2.12-.57-2.79-.62-.98-1.86-1.6-3.15-1.6-2.53,0-4.24,1.91-4.24,4.71v14.53h-6.57v-23.94h6.57Z"/>
        <path class="cls-1" d="m670.27,367.47c-3.98,3.72-7.71,5.22-12.82,5.22s-9.31-1.76-12.36-5.17c-2.95-3.26-4.65-7.91-4.65-12.67,0-10.5,7.14-18,17.12-18,5.33,0,8.95,1.5,13.03,5.48l-4.6,4.65c-2.79-2.53-5.17-3.57-8.07-3.57-6.05,0-10.29,4.65-10.29,11.27s4.45,11.43,10.65,11.43c3.15,0,5.59-1.09,7.7-3.52l4.29,4.86Z"/>
        <path class="cls-1" d="m679.52,361.63c.57,3.31,3,5.38,6.26,5.38,2.43,0,4.5-1.19,5.53-3.1l6.05,1.65c-2.38,4.65-6.57,7.29-11.64,7.29-7.6,0-13.03-5.38-13.03-12.83s5.22-12.77,12.62-12.77,12.98,5.38,12.98,13.08l-.05,1.29h-18.72Zm12-3.77c-.57-3.16-2.84-5.07-6.1-5.07s-5.27,1.81-5.89,5.07h12Z"/>
        <path class="cls-1" d="m709.88,348.08v2.95c1.76-2.74,3.52-3.78,6.52-3.78,2.28,0,4.45.83,5.9,2.22,1.55,1.55,2.12,3.46,2.12,7.39v15.15h-6.57v-14.84c0-1.34-.16-2.12-.57-2.79-.62-.98-1.86-1.6-3.16-1.6-2.53,0-4.24,1.91-4.24,4.71v14.53h-6.57v-23.94h6.57Z"/>
        <path class="cls-1" d="m737.96,364.99c0,1.14.41,1.45,1.86,1.55h1.14v5.48h-5.22c-3.21-.1-4.4-1.4-4.34-4.55v-13.96h-2.74v-5.53h2.74v-6.41h6.57v6.41h3v5.53h-3v11.48Z"/>
        <path class="cls-1" d="m751.09,361.63c.57,3.31,3,5.38,6.26,5.38,2.43,0,4.5-1.19,5.53-3.1l6.05,1.65c-2.38,4.65-6.57,7.29-11.64,7.29-7.6,0-13.03-5.38-13.03-12.83s5.22-12.77,12.62-12.77,12.98,5.38,12.98,13.08l-.05,1.29h-18.72Zm12-3.77c-.57-3.16-2.84-5.07-6.1-5.07s-5.27,1.81-5.89,5.07h12Z"/>
        <path class="cls-1" d="m781.45,348.08v3.52c.67-1.76,1.14-2.48,2.12-3.21,1.03-.72,2.43-1.14,3.88-1.14.16,0,.41,0,.78.05v6.72c-.52-.05-1.03-.1-1.4-.1-1.81,0-3.46.83-4.4,2.17-.78,1.09-.98,2.12-.98,4.4v11.53h-6.57v-23.94h6.57Z"/>
        <path class="cls-1" d="m815.27,372.03h-6.57v-18.41h-2.64v-5.53h2.64v-1.34c0-6.41,3.15-9.41,9.72-9.2v6.05c-2.28.26-3.15,1.14-3.15,3.15v1.34h3.15v5.53h-3.15v18.41Z"/>
        <path class="cls-1" d="m847.48,360.29c0,7.03-5.74,12.57-13.08,12.57s-12.98-5.33-12.98-12.77,5.33-12.82,13.08-12.82,12.98,5.48,12.98,13.03Zm-19.44-.21c0,4.14,2.59,6.93,6.41,6.93s6.41-2.84,6.41-6.83c0-4.34-2.43-7.03-6.36-7.03s-6.46,2.74-6.46,6.93Z"/>
        <path class="cls-1" d="m859.22,348.08v3.52c.67-1.76,1.14-2.48,2.12-3.21,1.03-.72,2.43-1.14,3.88-1.14.16,0,.41,0,.78.05v6.72c-.52-.05-1.03-.1-1.4-.1-1.81,0-3.46.83-4.4,2.17-.78,1.09-.98,2.12-.98,4.4v11.53h-6.57v-23.94h6.57Z"/>
        <path class="cls-1" d="m904.42,337.53h7.29l-10.86,34.49h-7.55l-10.45-34.49h7.29l6.98,23.11,7.29-23.11Z"/>
        <path class="cls-1" d="m932.14,348.08h6.57v23.94h-6.57v-3.31c-2.22,2.84-4.81,4.14-8.33,4.14-6.72,0-11.53-5.22-11.53-12.51s5.07-13.08,12.05-13.08c3.26,0,5.48,1.14,7.81,3.88v-3.05Zm-12.82,12.15c0,4.19,2.74,7.34,6.31,7.34s6.62-3.41,6.62-7.55-2.69-7.24-6.57-7.24-6.36,3.05-6.36,7.45Z"/>
        <path class="cls-1" d="m965.8,369.28c-2.74,2.48-5.59,3.57-9.21,3.57-7.29,0-12.67-5.38-12.67-12.67s5.27-12.93,12.72-12.93c3.57,0,6.52,1.24,9.57,3.98l-4.4,3.98c-1.45-1.45-3-2.12-4.91-2.12-3.62,0-6.31,2.95-6.31,6.88s2.74,7.03,6.57,7.03c1.71,0,2.95-.52,4.65-2.02l3.98,4.29Z"/>
        <path class="cls-1" d="m989.59,369.28c-2.74,2.48-5.59,3.57-9.21,3.57-7.29,0-12.67-5.38-12.67-12.67s5.27-12.93,12.72-12.93c3.57,0,6.52,1.24,9.57,3.98l-4.4,3.98c-1.45-1.45-3-2.12-4.91-2.12-3.62,0-6.31,2.95-6.31,6.88s2.74,7.03,6.57,7.03c1.71,0,2.95-.52,4.65-2.02l3.98,4.29Z"/>
        <path class="cls-1" d="m1000.71,341.31c0,2.02-1.55,3.57-3.62,3.57s-3.67-1.55-3.67-3.62,1.55-3.67,3.67-3.67,3.62,1.55,3.62,3.72Zm-.36,30.72h-6.57v-23.94h6.57v23.94Z"/>
        <path class="cls-1" d="m1013.74,348.08v2.95c1.76-2.74,3.52-3.78,6.52-3.78,2.28,0,4.45.83,5.9,2.22,1.55,1.55,2.12,3.46,2.12,7.39v15.15h-6.57v-14.84c0-1.34-.16-2.12-.57-2.79-.62-.98-1.86-1.6-3.15-1.6-2.53,0-4.24,1.91-4.24,4.71v14.53h-6.57v-23.94h6.57Z"/>
        <path class="cls-1" d="m1059.45,360.29c0,7.03-5.74,12.57-13.08,12.57s-12.98-5.33-12.98-12.77,5.33-12.82,13.08-12.82,12.98,5.48,12.98,13.03Zm-19.44-.21c0,4.14,2.59,6.93,6.41,6.93s6.41-2.84,6.41-6.83c0-4.34-2.43-7.03-6.36-7.03s-6.46,2.74-6.46,6.93Z"/>
        <path class="cls-1" d="m1064.62,372.03v-34.49h6.57v34.49h-6.57Z"/>
        <path class="cls-1" d="m1102.53,360.29c0,7.03-5.74,12.57-13.08,12.57s-12.98-5.33-12.98-12.77,5.33-12.82,13.08-12.82,12.98,5.48,12.98,13.03Zm-19.44-.21c0,4.14,2.59,6.93,6.41,6.93s6.41-2.84,6.41-6.83c0-4.34-2.43-7.03-6.36-7.03s-6.46,2.74-6.46,6.93Z"/>
        <path class="cls-1" d="m1125.54,348.08h6.47v22.18c0,4.91-.93,7.76-3.21,9.98-2.33,2.33-5.84,3.62-9.93,3.62-4.66,0-8.48-1.55-11.74-4.76l4.08-4.14c2.12,2.28,4.4,3.31,7.4,3.31,4.4,0,6.93-2.59,6.93-7.08v-2.43c-2.17,2.74-4.96,4.09-8.43,4.09-6.57,0-11.33-5.33-11.33-12.62,0-7.76,4.81-12.98,12-12.98,3.36,0,5.69,1.14,7.76,3.78v-2.95Zm-12.77,11.84c0,4.14,2.69,7.08,6.46,7.08,1.91,0,3.78-.83,4.96-2.22.78-.93,1.24-2.43,1.24-4.24,0-2.59-.57-4.34-1.76-5.59-1.19-1.14-2.84-1.86-4.5-1.86-3.77,0-6.41,2.84-6.41,6.83Z"/>
        <path class="cls-1" d="m1152.89,348.08h6.98l-13.5,34.85h-7.03l4.5-11.48-8.38-23.37h6.98l4.86,14.22,5.59-14.22Z"/>
      </g>
    </g>
  </g>
  <path class="cls-1" d="m1240,12v444.86H12V12h1228m12-12H0v468.86h1252V0h0Z"/>
</svg>