<?xml version="1.0" encoding="UTF-8"?>
<svg id="Logos" xmlns="http://www.w3.org/2000/svg" viewBox="0 0 1252 468.86">
  <defs>
    <style>
      .cls-1 {
        fill: #064f96;
      }

      .cls-2 {
        fill: #f3ab44;
      }

      .cls-3 {
        fill: #88aacd;
      }

      .cls-4 {
        fill: #dd8327;
      }
    </style>
  </defs>
  <g id="Icon">
    <g>
      <g>
        <polygon class="cls-4" points="158.69 210.23 197.41 248.95 197.41 171.51 158.69 210.23"/>
        <polygon class="cls-2" points="197.41 171.51 197.41 248.95 236.13 210.23 197.41 171.51"/>
        <polygon class="cls-4" points="74.21 146.87 74.21 188.98 143.8 258.8 143.8 216.56 74.21 146.87"/>
        <polygon class="cls-2" points="251.02 216.56 251.02 258.8 320.61 189.11 320.61 146.87 251.02 216.56"/>
        <polygon class="cls-1" points="158.69 329.91 197.41 368.63 197.41 270.07 158.69 231.35 158.69 329.91"/>
      </g>
      <rect class="cls-3" x="212.08" y="115.94" width="104.46" height="54.76" transform="translate(-23.93 228.88) rotate(-45)"/>
      <rect class="cls-1" x="103.15" y="91.08" width="54.76" height="104.53" transform="translate(-63.13 134.28) rotate(-45)"/>
    </g>
    <polygon class="cls-3" points="197.47 270.07 197.47 368.63 236.18 329.92 236.18 231.36 197.47 270.07"/>
  </g>
  <g>
    <g>
      <path class="cls-1" d="m502.79,136.27c21.05,0,39.4,12.65,49.1,31.41l38.04-37.72c-20.35-26.12-52.1-42.93-87.77-42.93-61.41,0-111.2,49.79-111.2,111.2s49.79,111.2,111.2,111.2c35.33,0,66.82-16.48,87.19-42.18l-37.53-38.31c-9.72,18.66-28.03,31.24-49.02,31.24-31.17,0-56.43-27.74-56.43-61.95s25.26-61.95,56.43-61.95Z"/>
      <path class="cls-1" d="m713.01,136.27c21.05,0,39.4,12.65,49.1,31.41l38.04-37.72c-20.35-26.12-52.1-42.93-87.77-42.93-61.41,0-111.2,49.79-111.2,111.2s49.79,111.2,111.2,111.2c35.33,0,66.82-16.48,87.19-42.18l-37.53-38.31c-9.72,18.66-28.03,31.24-49.02,31.24-31.17,0-56.43-27.74-56.43-61.95s25.26-61.95,56.43-61.95Z"/>
      <polygon class="cls-1" points="1113.97 89.65 1061.05 244.85 1025.88 141.7 964.49 141.7 1020.56 305.61 1101.55 305.61 1177.79 89.65 1113.97 89.65"/>
      <g>
        <polygon class="cls-3" points="823.52 89.65 823.52 305.61 879.21 305.61 879.21 224.6 956.34 224.6 956.34 172.53 879.21 172.53 879.21 141.7 965.55 141.7 947.56 89.65 823.52 89.65"/>
        <polygon class="cls-2" points="1008.13 89.65 955.82 89.65 946.92 89.65 964.49 141.7 975.44 141.7 1025.88 141.7 1008.13 89.65"/>
      </g>
    </g>
    <g>
      <path class="cls-1" d="m426.08,365.44c-3.98,3.72-7.71,5.22-12.82,5.22s-9.31-1.76-12.36-5.17c-2.95-3.26-4.65-7.91-4.65-12.67,0-10.5,7.14-18,17.12-18,5.33,0,8.95,1.5,13.03,5.48l-4.6,4.65c-2.79-2.53-5.17-3.57-8.07-3.57-6.05,0-10.29,4.65-10.29,11.27s4.45,11.43,10.65,11.43c3.15,0,5.58-1.09,7.71-3.52l4.29,4.86Z"/>
      <path class="cls-1" d="m448.58,346.05h6.57v23.94h-6.57v-3.31c-2.22,2.84-4.81,4.14-8.33,4.14-6.72,0-11.53-5.22-11.53-12.51s5.07-13.08,12.05-13.08c3.26,0,5.48,1.14,7.81,3.88v-3.05Zm-12.82,12.15c0,4.19,2.74,7.34,6.31,7.34s6.62-3.41,6.62-7.55-2.69-7.24-6.57-7.24-6.36,3.05-6.36,7.45Z"/>
      <path class="cls-1" d="m468.49,346.05v2.95c1.76-2.74,3.52-3.78,6.52-3.78,2.28,0,4.45.83,5.9,2.22,1.55,1.55,2.12,3.46,2.12,7.39v15.15h-6.57v-14.84c0-1.34-.15-2.12-.57-2.79-.62-.98-1.86-1.6-3.15-1.6-2.53,0-4.24,1.91-4.24,4.71v14.53h-6.57v-23.94h6.57Z"/>
      <path class="cls-1" d="m508.05,346.05h6.57v23.94h-6.57v-3.31c-2.22,2.84-4.81,4.14-8.33,4.14-6.72,0-11.53-5.22-11.53-12.51s5.07-13.08,12.05-13.08c3.26,0,5.48,1.14,7.81,3.88v-3.05Zm-12.82,12.15c0,4.19,2.74,7.34,6.31,7.34s6.62-3.41,6.62-7.55-2.69-7.24-6.57-7.24-6.36,3.05-6.36,7.45Z"/>
      <path class="cls-1" d="m539.75,335.5h6.57v34.49h-6.57v-3.15c-2.07,2.84-4.34,3.98-8.02,3.98-7.08,0-11.84-5.07-11.84-12.57,0-4.03,1.34-7.39,3.83-9.72,2.28-2.12,5.17-3.31,8.12-3.31,3.26,0,5.59,1.03,7.91,3.46v-13.19Zm-12.88,22.8c0,4.14,2.74,7.24,6.46,7.24s6.41-3.15,6.41-7.29c0-4.34-2.69-7.5-6.36-7.5s-6.52,3.15-6.52,7.55Z"/>
      <path class="cls-1" d="m560.02,339.28c0,2.02-1.55,3.57-3.62,3.57s-3.67-1.55-3.67-3.62,1.55-3.67,3.67-3.67,3.62,1.55,3.62,3.72Zm-.36,30.72h-6.57v-23.94h6.57v23.94Z"/>
      <path class="cls-1" d="m584.84,346.05h6.57v23.94h-6.57v-3.31c-2.22,2.84-4.81,4.14-8.33,4.14-6.72,0-11.53-5.22-11.53-12.51s5.07-13.08,12.05-13.08c3.26,0,5.48,1.14,7.81,3.88v-3.05Zm-12.82,12.15c0,4.19,2.74,7.34,6.31,7.34s6.62-3.41,6.62-7.55-2.69-7.24-6.57-7.24-6.36,3.05-6.36,7.45Z"/>
      <path class="cls-1" d="m604.75,346.05v2.95c1.76-2.74,3.52-3.78,6.52-3.78,2.28,0,4.45.83,5.9,2.22,1.55,1.55,2.12,3.46,2.12,7.39v15.15h-6.57v-14.84c0-1.34-.16-2.12-.57-2.79-.62-.98-1.86-1.6-3.15-1.6-2.53,0-4.24,1.91-4.24,4.71v14.53h-6.57v-23.94h6.57Z"/>
      <path class="cls-1" d="m670.27,365.44c-3.98,3.72-7.71,5.22-12.82,5.22s-9.31-1.76-12.36-5.17c-2.95-3.26-4.65-7.91-4.65-12.67,0-10.5,7.14-18,17.12-18,5.33,0,8.95,1.5,13.03,5.48l-4.6,4.65c-2.79-2.53-5.17-3.57-8.07-3.57-6.05,0-10.29,4.65-10.29,11.27s4.45,11.43,10.65,11.43c3.15,0,5.59-1.09,7.7-3.52l4.29,4.86Z"/>
      <path class="cls-1" d="m679.52,359.6c.57,3.31,3,5.38,6.26,5.38,2.43,0,4.5-1.19,5.53-3.1l6.05,1.65c-2.38,4.65-6.57,7.29-11.64,7.29-7.6,0-13.03-5.38-13.03-12.83s5.22-12.77,12.62-12.77,12.98,5.38,12.98,13.08l-.05,1.29h-18.72Zm12-3.77c-.57-3.16-2.84-5.07-6.1-5.07s-5.27,1.81-5.89,5.07h12Z"/>
      <path class="cls-1" d="m709.88,346.05v2.95c1.76-2.74,3.52-3.78,6.52-3.78,2.28,0,4.45.83,5.9,2.22,1.55,1.55,2.12,3.46,2.12,7.39v15.15h-6.57v-14.84c0-1.34-.16-2.12-.57-2.79-.62-.98-1.86-1.6-3.16-1.6-2.53,0-4.24,1.91-4.24,4.71v14.53h-6.57v-23.94h6.57Z"/>
      <path class="cls-1" d="m737.96,362.96c0,1.14.41,1.45,1.86,1.55h1.14v5.48h-5.22c-3.21-.1-4.4-1.4-4.34-4.55v-13.96h-2.74v-5.53h2.74v-6.41h6.57v6.41h3v5.53h-3v11.48Z"/>
      <path class="cls-1" d="m751.09,359.6c.57,3.31,3,5.38,6.26,5.38,2.43,0,4.5-1.19,5.53-3.1l6.05,1.65c-2.38,4.65-6.57,7.29-11.64,7.29-7.6,0-13.03-5.38-13.03-12.83s5.22-12.77,12.62-12.77,12.98,5.38,12.98,13.08l-.05,1.29h-18.72Zm12-3.77c-.57-3.16-2.84-5.07-6.1-5.07s-5.27,1.81-5.89,5.07h12Z"/>
      <path class="cls-1" d="m781.45,346.05v3.52c.67-1.76,1.14-2.48,2.12-3.21,1.03-.72,2.43-1.14,3.88-1.14.16,0,.41,0,.78.05v6.72c-.52-.05-1.03-.1-1.4-.1-1.81,0-3.46.83-4.4,2.17-.78,1.09-.98,2.12-.98,4.4v11.53h-6.57v-23.94h6.57Z"/>
      <path class="cls-1" d="m815.27,369.99h-6.57v-18.41h-2.64v-5.53h2.64v-1.34c0-6.41,3.15-9.41,9.72-9.2v6.05c-2.28.26-3.15,1.14-3.15,3.15v1.34h3.15v5.53h-3.15v18.41Z"/>
      <path class="cls-1" d="m847.48,358.25c0,7.03-5.74,12.57-13.08,12.57s-12.98-5.33-12.98-12.77,5.33-12.82,13.08-12.82,12.98,5.48,12.98,13.03Zm-19.44-.21c0,4.14,2.59,6.93,6.41,6.93s6.41-2.84,6.41-6.83c0-4.34-2.43-7.03-6.36-7.03s-6.46,2.74-6.46,6.93Z"/>
      <path class="cls-1" d="m859.22,346.05v3.52c.67-1.76,1.14-2.48,2.12-3.21,1.03-.72,2.43-1.14,3.88-1.14.16,0,.41,0,.78.05v6.72c-.52-.05-1.03-.1-1.4-.1-1.81,0-3.46.83-4.4,2.17-.78,1.09-.98,2.12-.98,4.4v11.53h-6.57v-23.94h6.57Z"/>
      <path class="cls-1" d="m904.42,335.5h7.29l-10.86,34.49h-7.55l-10.45-34.49h7.29l6.98,23.11,7.29-23.11Z"/>
      <path class="cls-1" d="m932.14,346.05h6.57v23.94h-6.57v-3.31c-2.22,2.84-4.81,4.14-8.33,4.14-6.72,0-11.53-5.22-11.53-12.51s5.07-13.08,12.05-13.08c3.26,0,5.48,1.14,7.81,3.88v-3.05Zm-12.82,12.15c0,4.19,2.74,7.34,6.31,7.34s6.62-3.41,6.62-7.55-2.69-7.24-6.57-7.24-6.36,3.05-6.36,7.45Z"/>
      <path class="cls-1" d="m965.8,367.25c-2.74,2.48-5.59,3.57-9.21,3.57-7.29,0-12.67-5.38-12.67-12.67s5.27-12.93,12.72-12.93c3.57,0,6.52,1.24,9.57,3.98l-4.4,3.98c-1.45-1.45-3-2.12-4.91-2.12-3.62,0-6.31,2.95-6.31,6.88s2.74,7.03,6.57,7.03c1.71,0,2.95-.52,4.65-2.02l3.98,4.29Z"/>
      <path class="cls-1" d="m989.59,367.25c-2.74,2.48-5.59,3.57-9.21,3.57-7.29,0-12.67-5.38-12.67-12.67s5.27-12.93,12.72-12.93c3.57,0,6.52,1.24,9.57,3.98l-4.4,3.98c-1.45-1.45-3-2.12-4.91-2.12-3.62,0-6.31,2.95-6.31,6.88s2.74,7.03,6.57,7.03c1.71,0,2.95-.52,4.65-2.02l3.98,4.29Z"/>
      <path class="cls-1" d="m1000.71,339.28c0,2.02-1.55,3.57-3.62,3.57s-3.67-1.55-3.67-3.62,1.55-3.67,3.67-3.67,3.62,1.55,3.62,3.72Zm-.36,30.72h-6.57v-23.94h6.57v23.94Z"/>
      <path class="cls-1" d="m1013.74,346.05v2.95c1.76-2.74,3.52-3.78,6.52-3.78,2.28,0,4.45.83,5.9,2.22,1.55,1.55,2.12,3.46,2.12,7.39v15.15h-6.57v-14.84c0-1.34-.16-2.12-.57-2.79-.62-.98-1.86-1.6-3.15-1.6-2.53,0-4.24,1.91-4.24,4.71v14.53h-6.57v-23.94h6.57Z"/>
      <path class="cls-1" d="m1059.45,358.25c0,7.03-5.74,12.57-13.08,12.57s-12.98-5.33-12.98-12.77,5.33-12.82,13.08-12.82,12.98,5.48,12.98,13.03Zm-19.44-.21c0,4.14,2.59,6.93,6.41,6.93s6.41-2.84,6.41-6.83c0-4.34-2.43-7.03-6.36-7.03s-6.46,2.74-6.46,6.93Z"/>
      <path class="cls-1" d="m1064.62,369.99v-34.49h6.57v34.49h-6.57Z"/>
      <path class="cls-1" d="m1102.53,358.25c0,7.03-5.74,12.57-13.08,12.57s-12.98-5.33-12.98-12.77,5.33-12.82,13.08-12.82,12.98,5.48,12.98,13.03Zm-19.44-.21c0,4.14,2.59,6.93,6.41,6.93s6.41-2.84,6.41-6.83c0-4.34-2.43-7.03-6.36-7.03s-6.46,2.74-6.46,6.93Z"/>
      <path class="cls-1" d="m1125.54,346.05h6.47v22.18c0,4.91-.93,7.76-3.21,9.98-2.33,2.33-5.84,3.62-9.93,3.62-4.66,0-8.48-1.55-11.74-4.76l4.08-4.14c2.12,2.28,4.4,3.31,7.4,3.31,4.4,0,6.93-2.59,6.93-7.08v-2.43c-2.17,2.74-4.96,4.09-8.43,4.09-6.57,0-11.33-5.33-11.33-12.62,0-7.76,4.81-12.98,12-12.98,3.36,0,5.69,1.14,7.76,3.78v-2.95Zm-12.77,11.84c0,4.14,2.69,7.08,6.46,7.08,1.91,0,3.78-.83,4.96-2.22.78-.93,1.24-2.43,1.24-4.24,0-2.59-.57-4.34-1.76-5.59-1.19-1.14-2.84-1.86-4.5-1.86-3.77,0-6.41,2.84-6.41,6.83Z"/>
      <path class="cls-1" d="m1152.89,346.05h6.98l-13.5,34.85h-7.03l4.5-11.48-8.38-23.37h6.98l4.86,14.22,5.59-14.22Z"/>
    </g>
  </g>
</svg>