<?xml version="1.0" encoding="UTF-8"?>
<svg id="Layer_1" data-name="Layer 1" xmlns="http://www.w3.org/2000/svg" viewBox="0 0 1080 1080">
  <defs>
    <style>
      .cls-1 {
        letter-spacing: -.05em;
      }

      .cls-2 {
        fill: #de8226;
      }

      .cls-3 {
        font-family: MyriadPro-Regular, 'Myriad Pro';
        font-size: 108.78px;
      }

      .cls-3, .cls-4 {
        fill: #f2ab45;
      }

      .cls-5 {
        fill: #87abcc;
      }

      .cls-6 {
        letter-spacing: .02em;
      }

      .cls-7 {
        fill: #054f96;
      }

      .cls-8 {
        letter-spacing: 0em;
      }
    </style>
  </defs>
  <polygon class="cls-2" points="555.41 0 677.36 247.1 950.05 286.73 752.73 479.07 799.31 750.66 555.41 622.43 311.5 750.66 358.09 479.07 160.76 286.73 433.46 247.1 555.41 0"/>
  <polygon class="cls-2" points="556.56 0 678.51 247.1 951.21 286.73 753.88 479.07 800.46 750.66 556.56 622.43 312.66 750.66 359.24 479.07 161.92 286.73 434.61 247.1 556.56 0"/>
  <polygon class="cls-4" points="677.36 247.1 555.58 .34 555.58 622.52 799.31 750.66 752.73 479.07 950.05 286.73 677.36 247.1"/>
  <polygon class="cls-4" points="555.41 177.74 619.61 307.82 763.17 328.68 659.29 429.94 683.81 572.92 555.41 505.41 427.01 572.92 451.53 429.94 347.65 328.68 491.21 307.82 555.41 177.74"/>
  <polygon class="cls-2" points="619.61 307.82 555.5 177.92 555.5 505.46 683.81 572.92 659.29 429.94 763.17 328.68 619.61 307.82"/>
  <polygon class="cls-7" points="436.77 1080.04 554.86 1018.08 554.86 666.54 436.77 728.49 436.77 1080.04"/>
  <polygon class="cls-5" points="672.95 1080.04 554.86 1018.08 554.86 666.54 672.95 728.49 672.95 1080.04"/>
  <polygon class="cls-7" points="745.47 1016.33 672.95 978.28 672.95 728.49 745.47 766.54 745.47 1016.33"/>
  <polygon class="cls-5" points="364.26 1016.33 436.77 978.28 436.77 728.49 364.26 766.54 364.26 1016.33"/>
  <g>
    <path class="cls-5" d="m711.12,213.98l131.25,19.07c-44.53-68.2-112.48-119.69-192.45-143.07l61.2,124Z"/>
    <path class="cls-7" d="m402.56,213.98l62.48-126.6c-84.54,22.13-156.45,75.47-202.68,146.97l140.2-20.37Z"/>
    <path class="cls-5" d="m806.47,507.44l21.22,123.74c44.35-58.12,70.7-130.7,70.7-209.45,0-1.29-.03-2.56-.05-3.85l-91.88,89.56Z"/>
    <path class="cls-7" d="m307.21,507.44l-99.81-97.29c-.13,3.85-.21,7.7-.21,11.58,0,82.61,29,158.43,77.35,217.89l22.67-132.18Z"/>
  </g>
  <text class="cls-3" transform="translate(163.48 -69.2)"><tspan class="cls-1" x="0" y="0">T</tspan><tspan x="49.17" y="0">rus</tspan><tspan class="cls-8" x="187.75" y="0">t</tspan><tspan x="223.1" y="0">ed Expe</tspan><tspan class="cls-6" x="582.27" y="0">r</tspan><tspan x="620.45" y="0">tise</tspan></text>
</svg>