<?xml version="1.0" encoding="UTF-8"?>
<svg id="Layer_1" data-name="Layer 1" xmlns="http://www.w3.org/2000/svg" viewBox="0 0 1080 1080">
  <defs>
    <style>
      .cls-1 {
        letter-spacing: 0em;
      }

      .cls-2 {
        letter-spacing: 0em;
      }

      .cls-3 {
        fill: #de8226;
      }

      .cls-4 {
        font-family: MyriadPro-Regular, 'Myriad Pro';
        font-size: 108.78px;
      }

      .cls-4, .cls-5 {
        fill: #f2ab45;
      }

      .cls-6 {
        letter-spacing: 0em;
      }

      .cls-7 {
        fill: #87abcc;
      }

      .cls-8 {
        fill: #054f96;
      }
    </style>
  </defs>
  <g>
    <polygon class="cls-5" points="293.75 643.52 270.98 666.28 145.93 541.22 270.98 416.17 293.82 439 319.17 413.65 271.06 365.54 95.38 541.22 271.06 716.9 319.1 668.87 293.75 643.52"/>
    <polygon class="cls-5" points="389.26 196.1 271.73 313.62 146.68 188.57 95.38 188.57 271.06 364.25 414.23 221.08 389.26 196.1"/>
    <polygon class="cls-5" points="387.71 883.14 413.07 857.79 271.06 715.79 95.38 891.47 145.93 891.47 270.98 766.41 387.71 883.14"/>
    <g>
      <path class="cls-7" d="m541,809.82l269.94-269.94-269.94-269.94-269.94,269.94,269.94,269.94Zm192.03-269.94l-192.15,192.15-192.15-192.15,192.15-192.15,192.15,192.15Z"/>
      <polygon class="cls-7" points="348.73 1080.04 540.88 887.88 733.03 1080.04 810.94 1080.04 541 810.1 271.06 1080.04 348.73 1080.04"/>
      <polygon class="cls-7" points="541 269.94 810.94 0 734.19 0 542.03 192.15 349.88 0 271.06 0 541 269.94"/>
      <polygon class="cls-7" points="540.88 732.03 635.52 637.39 446.24 637.39 540.88 732.03"/>
      <polygon class="cls-7" points="730.96 541.22 730.96 537.81 638.21 445.06 443.55 445.06 348.73 539.88 350.07 541.22 730.96 541.22"/>
      <polygon class="cls-7" points="638.44 95.75 445.63 95.75 541.8 191.91 542.27 191.91 638.44 95.75"/>
      <polygon class="cls-5" points="540.88 732.03 635.52 637.39 446.24 637.39 540.88 732.03"/>
      <polygon class="cls-5" points="730.96 541.22 730.96 537.81 638.21 445.06 443.55 445.06 348.73 539.88 350.07 541.22 730.96 541.22"/>
      <polygon class="cls-5" points="638.44 95.75 445.63 95.75 541.8 191.91 542.27 191.91 638.44 95.75"/>
      <polygon class="cls-8" points="541 269.94 541 191.12 349.88 0 271.06 0 541 269.94"/>
      <polygon class="cls-3" points="541 95.75 445.63 95.75 541 191.12 541 95.75"/>
      <polygon class="cls-3" points="444.48 984.29 637.29 984.29 541.12 888.13 540.88 887.88 540.64 888.13 444.48 984.29"/>
      <polygon class="cls-5" points="541 984.29 637.29 984.29 540.88 887.88 541 984.29"/>
      <polygon class="cls-8" points="541 809.82 540.88 732.03 349.88 541.03 540.88 347.73 541 269.94 271.06 539.88 541 809.82"/>
      <polygon class="cls-3" points="541 541.22 541 445.06 443.55 445.06 348.73 539.88 350.07 541.22 541 541.22"/>
      <polygon class="cls-3" points="541 637.39 446.24 637.39 540.88 732.03 541 637.39"/>
      <polygon class="cls-8" points="348.73 1080.04 540.88 887.88 541 810.1 271.06 1080.04 348.73 1080.04"/>
    </g>
    <polygon class="cls-3" points="271.06 364.25 271.06 312.95 146.68 188.57 95.38 188.57 271.06 364.25"/>
    <polygon class="cls-8" points="271.06 715.61 270.98 664.98 146.68 540.68 270.98 414.87 271.06 364.25 95.38 539.93 271.06 715.61"/>
    <polygon class="cls-3" points="145.93 891.47 270.98 766.41 271.06 715.79 95.38 891.47 145.93 891.47"/>
    <polygon class="cls-7" points="810.94 364.25 762.83 412.35 788.11 437.63 810.86 414.87 935.92 539.93 810.86 664.98 788.18 642.3 762.9 667.57 810.94 715.61 986.62 539.93 810.94 364.25"/>
    <g>
      <polygon class="cls-8" points="788.18 642.3 762.9 667.57 810.94 715.61 810.86 664.98 788.18 642.3"/>
      <polygon class="cls-8" points="788.24 437.76 810.86 414.87 810.94 364.25 762.83 412.35 788.24 437.76"/>
    </g>
    <polygon class="cls-3" points="270.99 416.18 270.99 365.61 95.38 541.22 270.99 716.83 270.99 666.27 270.98 666.28 145.93 541.22 270.98 416.17 270.99 416.18"/>
    <polygon class="cls-7" points="810.94 715.79 667.78 858.95 693.05 884.22 810.86 766.41 935.92 891.47 986.62 891.47 810.94 715.79"/>
    <polygon class="cls-8" points="693.05 884.22 810.86 766.41 810.94 715.79 667.78 858.95 693.05 884.22"/>
    <polygon class="cls-7" points="936.67 188.57 811.61 313.62 692.26 194.27 666.61 219.92 810.94 364.25 986.62 188.57 936.67 188.57"/>
    <polygon class="cls-8" points="666.61 219.92 810.94 364.25 810.94 312.95 692.26 194.27 666.61 219.92"/>
  </g>
  <text class="cls-4" transform="translate(70.47 -69.2)"><tspan class="cls-1" x="0" y="0">R</tspan><tspan x="58.96" y="0">esponsi</tspan><tspan class="cls-6" x="407.04" y="0">v</tspan><tspan x="458.27" y="0">e </tspan><tspan class="cls-1" x="535.82" y="0">R</tspan><tspan x="594.78" y="0">esea</tspan><tspan class="cls-2" x="799.28" y="0">r</tspan><tspan x="833.76" y="0">ch</tspan></text>
</svg>