<?xml version="1.0" encoding="UTF-8"?>
<svg id="Layer_1" data-name="Layer 1" xmlns="http://www.w3.org/2000/svg" viewBox="0 0 1080 1080">
  <defs>
    <style>
      .cls-1 {
        fill: #fff;
      }

      .cls-2 {
        stroke: #de8226;
      }

      .cls-2, .cls-3 {
        fill: none;
        stroke-miterlimit: 10;
        stroke-width: 30px;
      }

      .cls-4 {
        letter-spacing: .01em;
      }

      .cls-5 {
        letter-spacing: 0em;
      }

      .cls-3 {
        stroke: #f2ab45;
      }

      .cls-6 {
        fill: #de8226;
      }

      .cls-7 {
        font-family: MyriadPro-Regular, 'Myriad Pro';
        font-size: 108.78px;
      }

      .cls-7, .cls-8 {
        fill: #f2ab45;
      }

      .cls-9 {
        fill: #87abcc;
      }

      .cls-10 {
        fill: #054f96;
      }
    </style>
  </defs>
  <g>
    <path class="cls-3" d="m537.19,175.08c202.45,0,366.58,164.12,366.58,366.58s-164.12,366.58-366.58,366.58"/>
    <path class="cls-2" d="m537.19,908.23c-202.45,0-366.58-164.12-366.58-366.58s164.12-366.58,366.58-366.58"/>
    <g>
      <polygon class="cls-10" points="697.55 384.56 676.54 307.44 907.67 172.01 774.35 405.19 698.34 385.35 697.55 384.56"/>
      <polygon class="cls-6" points="539.62 542.54 654.64 428.29 1082.92 540.1 653.88 657.56 539.62 542.54"/>
      <polygon class="cls-8" points="1082.16 540.1 539.62 542.54 653.88 657.56 1082.16 540.1"/>
      <polygon class="cls-6" points="539.62 542.54 425.36 656.8 -2.92 544.98 425.36 428.29 539.62 542.54"/>
      <polygon class="cls-8" points="-2.92 544.98 539.62 542.54 425.36 428.29 -2.92 544.98"/>
      <polygon class="cls-6" points="539.63 542.54 653.88 657.56 542.07 1085.84 425.37 657.56 539.63 542.54"/>
      <polygon class="cls-8" points="542.07 1085.09 539.63 542.54 425.37 656.8 542.07 1085.09"/>
      <polygon class="cls-6" points="539.63 542.54 425.18 428.86 537.19 0 653.88 428.29 539.63 542.54"/>
      <polygon class="cls-8" points="537.19 0 539.63 542.54 654.45 428.86 537.19 0"/>
      <polygon class="cls-9" points="697.55 384.56 697.55 384.56 697.44 384.14 907.15 172.53 774.16 405.14 698.34 385.35 697.55 384.56"/>
      <polygon class="cls-10" points="381.89 384.56 401.75 308.46 168.91 175.33 304.31 406.42 381.62 385.35 381.62 385.35 381.89 384.56"/>
      <polygon class="cls-10" points="381.88 701.28 382.11 701.06 382 700.65 381.62 701.02 305.52 681.15 172.48 913.83 403 778.77 381.88 701.28"/>
      <polygon class="cls-10" points="698.34 701.02 698.12 700.8 697.29 701.02 697.55 701.28 677.71 777.29 910.73 910.52 775.64 679.96 698.34 701.02"/>
      <polygon class="cls-9" points="698.34 701.02 698.12 700.8 697.29 701.02 697.55 701.28 677.76 777.1 910.21 910 699.13 700.81 698.34 701.02"/>
      <polygon class="cls-9" points="381.88 701.28 382.11 701.06 382 700.65 381.62 701.02 305.52 681.15 172.48 913.83 382.15 702.27 381.88 701.28"/>
      <polygon class="cls-9" points="381.89 384.56 401.75 308.46 168.91 175.33 381 385.52 381.62 385.35 381.62 385.35 381.89 384.56"/>
    </g>
    <rect class="cls-1" x="499.8" y="503.19" width="79.47" height="79.47" transform="translate(541.93 -222.49) rotate(45)"/>
  </g>
  <text class="cls-7" transform="translate(223.3 -69.2)"><tspan x="0" y="0">Global </tspan><tspan class="cls-5" x="318.71" y="0">I</tspan><tspan x="345.79" y="0">mpa</tspan><tspan class="cls-4" x="550.84" y="0">c</tspan><tspan x="600.98" y="0">t</tspan></text>
</svg>